<?xml version="1.0" encoding="utf-8"?>
<!-- Generator: Adobe Illustrator 28.0.0, SVG Export Plug-In . SVG Version: 6.00 Build 0)  -->
<svg version="1.1" id="Calque_1" xmlns="http://www.w3.org/2000/svg" xmlns:xlink="http://www.w3.org/1999/xlink" x="0px" y="0px"
	 viewBox="0 0 72 72" style="enable-background:new 0 0 72 72;" xml:space="preserve" width="103pt" height="107pt" preserveAspectRatio="xMidYMid meet">
<style type="text/css">
	.st0{fill:#020203;}
	.st1{fill:url(#XMLID_00000093160939146595033980000000229589419541528966_);}
	.st2{display:none;}
	.st3{display:inline;}
	.st4{fill:#343434;}
	.st5{display:inline;fill:none;stroke:#BF78B0;}
	.st6{display:inline;fill:#437EB9;}
	.st7{fill:#E9E8E8;}
	.st8{opacity:0.33;fill:#6A6A6A;}
	.st9{opacity:0;fill:#6A6A6A;}
</style>
<symbol  id="Nouveau_symbole" viewBox="-17.5 -17.5 35 35">
	<path id="XMLID_00000000929911412358546350000000540591757098394815_" class="st0" d="M0,15.72c8.67,0,15.72-7.05,15.72-15.72
		S8.67-15.72,0-15.72S-15.72-8.67-15.72,0S-8.67,15.72,0,15.72 M0,17.5c-9.65,0-17.5-7.85-17.5-17.5S-9.65-17.5,0-17.5
		c9.65,0,17.5,7.85,17.5,17.5S9.65,17.5,0,17.5L0,17.5z"/>
	
		<radialGradient id="XMLID_00000153683770179288740180000005744928851816196796_" cx="-30.75" cy="23.0622" r="58.6824" gradientUnits="userSpaceOnUse">
		<stop  offset="0.3704" style="stop-color:#CE1D51"/>
		<stop  offset="0.8543" style="stop-color:#A81835"/>
	</radialGradient>
	
		<circle id="XMLID_00000146474406607879506100000004439558815679964094_" style="fill:url(#XMLID_00000153683770179288740180000005744928851816196796_);" cx="0" cy="0" r="15.72"/>
	<g id="Calque_3_00000122704639765899983480000011145345036798694559_" class="st2">
		<g id="XMLID_00000111186298045582888400000009483123268015990672_" class="st3">
			<circle class="st4" cx="0" cy="0" r="7.52"/>
		</g>
		<rect id="XMLID_00000116927518864145265650000012149532890182535306_" x="-4" y="-4" class="st5" width="8" height="8"/>
	</g>
	<g id="XMLID_00000048495188670597677070000017735089533814038437_" class="st2">
		<circle class="st6" cx="0" cy="0" r="7.52"/>
	</g>
	
		<text id="XMLID_00000026146957911067697600000010883208431544457632_" transform="matrix(1 0 0 -1 -3.4258 -4.3335)" style="display:none;opacity:0.4; font-family:'HelveticaNeueLTStd-Bd'; font-size:12px;">X</text>
</symbol>
<symbol  id="Nouveau_symbole_3" viewBox="-17.5 -17.5 35 35">
	<path id="XMLID_163_" class="st0" d="M0-15.72c-8.67,0-15.72,7.05-15.72,15.72S-8.67,15.72,0,15.72S15.72,8.67,15.72,0
		S8.67-15.72,0-15.72 M0-17.5c9.65,0,17.5,7.85,17.5,17.5S9.65,17.5,0,17.5c-9.65,0-17.5-7.85-17.5-17.5S-9.65-17.5,0-17.5L0-17.5z"
		/>
	<circle id="XMLID_162_" class="st7" cx="0" cy="0" r="15.72"/>
	<g id="Calque_3_4_" class="st2">
		<g id="XMLID_159_" class="st3">
			<circle class="st4" cx="0" cy="0" r="7.52"/>
		</g>
		<rect id="XMLID_155_" x="-4" y="-4" class="st5" width="8" height="8"/>
	</g>
	<g id="XMLID_97_" class="st2">
		<circle class="st6" cx="0" cy="0" r="7.52"/>
	</g>
	
		<text id="XMLID_49_" transform="matrix(1 0 0 -1 -3.4258 -4.3335)" style="display:none;opacity:0.4; font-family:'HelveticaNeueLTStd-Bd'; font-size:12px;">X</text>
	<path id="XMLID_46_" class="st8" d="M14.61,2.19c0-9.08-7.39-16.47-16.47-16.47c-2.25,0-4.39,0.46-6.35,1.28
		c2.31-1.37,4.99-2.16,7.86-2.16c8.55,0,15.5,6.95,15.5,15.5c0,1.74-0.3,3.42-0.84,4.98C14.5,4.3,14.61,3.26,14.61,2.19z"/>
</symbol>
<symbol  id="Nouveau_symbole_97" viewBox="-36 -36 72 72">
	<g>
		<g id="Nouveau_symbole_8_00000067218560235948634710000012453888254434301118_">
			<rect id="XMLID_00000040569356622216144400000008366991613706906532_" x="-36" y="-36" class="st9" width="72" height="72"/>
			
				<use xlink:href="#Nouveau_symbole"  width="35" height="35" id="XMLID_00000054971169171045806220000006926804353844531348_" x="-17.5" y="-17.5" transform="matrix(0.8844 0 0 0.8844 -14.2473 11.0551)" style="overflow:visible;"/>
			
				<use xlink:href="#Nouveau_symbole"  width="35" height="35" id="XMLID_00000145016970527109173110000005893975031972316860_" x="-17.5" y="-17.5" transform="matrix(0.8844 0 0 0.8844 15.1316 19.8995)" style="overflow:visible;"/>
			
				<use xlink:href="#Nouveau_symbole_3"  width="35" height="35" id="XMLID_00000168096061255035108720000009645810641157323398_" x="-17.5" y="-17.5" transform="matrix(0.8844 0 0 0.8844 -15.1318 -19.8991)" style="overflow:visible;"/>
			
				<use xlink:href="#Nouveau_symbole"  width="35" height="35" id="XMLID_00000085245855959517435160000001123350509587414162_" x="-17.5" y="-17.5" transform="matrix(0.8844 0 0 0.8844 14.2472 -11.0547)" style="overflow:visible;"/>
		</g>
	</g>
</symbol>
<use xlink:href="#Nouveau_symbole_97"  width="72" height="72" x="-36" y="-36" transform="matrix(1 0 0 -1 36 35.9999)" style="overflow:visible;"/>
</svg>
