<?xml version="1.0" encoding="UTF-8"?>
<svg xmlns="http://www.w3.org/2000/svg" width="323" height="324" viewBox="0 0 323 324">
  <circle cx="156.60" cy="161.40" r="155.96" fill="#535352" />
  <path d="M 90.00,64.00 84.00,70.00 80.00,81.00 80.00,247.00 84.00,256.00 90.00,262.00 101.00,266.00 181.00,266.00 182.00,265.00 189.00,265.00 190.00,264.00 199.00,263.00 217.00,256.00 228.00,249.00 237.00,241.00 249.00,225.00 254.00,215.00 261.00,193.00 261.00,188.00 262.00,187.00 262.00,182.00 263.00,181.00 263.00,146.00 262.00,145.00 261.00,134.00 259.00,130.00 259.00,126.00 255.00,114.00 244.00,94.00 231.00,80.00 221.00,73.00 204.00,65.00 188.00,61.00 180.00,61.00 179.00,60.00 100.00,60.00 Z M 110.00,85.00 117.00,83.00 118.00,84.00 123.00,84.00 124.00,83.00 130.00,83.00 131.00,84.00 132.00,83.00 180.00,84.00 194.00,88.00 203.00,92.00 209.00,96.00 223.00,111.00 230.00,125.00 235.00,144.00 235.00,150.00 236.00,151.00 236.00,175.00 235.00,176.00 235.00,182.00 230.00,201.00 224.00,214.00 218.00,222.00 205.00,233.00 195.00,238.00 189.00,239.00 185.00,241.00 167.00,242.00 166.00,243.00 117.00,243.00 116.00,242.00 112.00,242.00 108.00,239.00 106.00,233.00 106.00,222.00 107.00,221.00 106.00,220.00 106.00,212.00 107.00,211.00 106.00,209.00 107.00,208.00 106.00,205.00 107.00,204.00 107.00,192.00 106.00,191.00 107.00,188.00 106.00,185.00 106.00,180.00 107.00,179.00 106.00,176.00 107.00,172.00 106.00,171.00 106.00,167.00 107.00,166.00 106.00,165.00 107.00,162.00 106.00,160.00 107.00,159.00 106.00,158.00 107.00,156.00 106.00,153.00 107.00,152.00 106.00,151.00 107.00,148.00 107.00,135.00 106.00,134.00 107.00,132.00 106.00,131.00 107.00,127.00 107.00,122.00 106.00,121.00 107.00,120.00 106.00,119.00 107.00,117.00 106.00,115.00 107.00,114.00 107.00,101.00 106.00,100.00 107.00,97.00 106.00,96.00 107.00,95.00 106.00,94.00 107.00,93.00 107.00,88.00 Z" fill="#f69335" fill-rule="evenodd"/>
</svg>
