<?xml version="1.0" encoding="UTF-8"?>
<svg xmlns="http://www.w3.org/2000/svg" width="323" height="324" viewBox="0 0 323 324">
  <circle cx="160.20" cy="160.20" r="155.96" fill="#545150" />
  <path d="M 68.00,56.00 64.00,61.00 64.00,255.00 66.00,259.00 69.00,261.00 75.00,261.00 77.00,260.00 80.00,255.00 80.00,168.00 84.00,164.00 139.00,164.00 142.00,167.00 142.00,253.00 144.00,258.00 148.00,261.00 154.00,261.00 158.00,257.00 158.00,255.00 159.00,254.00 159.00,64.00 158.00,63.00 158.00,61.00 154.00,56.00 150.00,55.00 144.00,58.00 143.00,63.00 142.00,64.00 142.00,140.00 140.00,142.00 83.00,142.00 80.00,138.00 80.00,62.00 79.00,61.00 79.00,59.00 76.00,56.00 74.00,56.00 73.00,55.00 Z M 219.00,53.00 218.00,54.00 208.00,55.00 205.00,57.00 201.00,58.00 198.00,60.00 186.00,73.00 182.00,81.00 182.00,83.00 180.00,87.00 179.00,96.00 178.00,97.00 178.00,118.00 179.00,119.00 180.00,127.00 185.00,139.00 196.00,151.00 210.00,159.00 224.00,163.00 227.00,165.00 229.00,165.00 232.00,167.00 236.00,168.00 246.00,177.00 250.00,184.00 250.00,187.00 252.00,191.00 253.00,207.00 252.00,208.00 251.00,218.00 245.00,230.00 237.00,237.00 229.00,240.00 216.00,240.00 207.00,236.00 199.00,229.00 192.00,217.00 190.00,210.00 187.00,207.00 185.00,206.00 181.00,206.00 179.00,207.00 176.00,210.00 175.00,217.00 176.00,218.00 176.00,223.00 182.00,238.00 186.00,244.00 197.00,255.00 209.00,261.00 218.00,262.00 219.00,263.00 227.00,263.00 228.00,262.00 234.00,262.00 246.00,257.00 255.00,249.00 260.00,242.00 261.00,239.00 263.00,237.00 263.00,235.00 265.00,232.00 265.00,230.00 267.00,226.00 267.00,223.00 268.00,222.00 270.00,197.00 269.00,196.00 269.00,187.00 268.00,186.00 267.00,178.00 266.00,177.00 265.00,172.00 259.00,161.00 246.00,149.00 234.00,143.00 228.00,142.00 227.00,141.00 216.00,138.00 208.00,134.00 200.00,127.00 196.00,120.00 195.00,113.00 194.00,112.00 194.00,101.00 195.00,100.00 195.00,96.00 199.00,87.00 210.00,77.00 212.00,77.00 216.00,75.00 228.00,75.00 237.00,79.00 244.00,86.00 251.00,100.00 256.00,103.00 261.00,102.00 265.00,97.00 265.00,89.00 263.00,85.00 263.00,82.00 259.00,74.00 246.00,60.00 239.00,56.00 237.00,56.00 233.00,54.00 Z" fill="#eb3633" fill-rule="evenodd"/>
</svg>
