<?xml version="1.0" encoding="UTF-8"?>
<svg xmlns="http://www.w3.org/2000/svg" width="324" height="324" viewBox="0 0 324 324">
  <circle cx="162.60" cy="157.80" r="155.84" fill="#515353" />
  <path d="M 89.00,54.00 85.00,58.00 83.00,63.00 83.00,247.00 84.00,248.00 84.00,252.00 87.00,257.00 92.00,260.00 102.00,260.00 104.00,259.00 109.00,253.00 109.00,250.00 110.00,249.00 110.00,173.00 113.00,171.00 230.00,259.00 232.00,259.00 233.00,260.00 241.00,260.00 245.00,258.00 249.00,253.00 250.00,246.00 248.00,241.00 242.00,235.00 234.00,230.00 184.00,192.00 180.00,190.00 137.00,157.00 133.00,155.00 129.00,151.00 158.00,129.00 165.00,125.00 205.00,95.00 209.00,93.00 212.00,90.00 216.00,88.00 223.00,82.00 231.00,77.00 238.00,69.00 238.00,61.00 236.00,57.00 233.00,54.00 229.00,52.00 222.00,52.00 216.00,55.00 205.00,64.00 201.00,66.00 190.00,75.00 186.00,77.00 182.00,81.00 178.00,83.00 167.00,92.00 163.00,94.00 140.00,112.00 136.00,114.00 112.00,132.00 110.00,130.00 110.00,62.00 108.00,57.00 105.00,54.00 101.00,52.00 93.00,52.00 Z" fill="#5fc3f4" fill-rule="evenodd"/>
</svg>
