<?xml version="1.0" encoding="UTF-8"?>
<svg xmlns="http://www.w3.org/2000/svg" width="323" height="324" viewBox="0 0 323 324">
  <circle cx="157.80" cy="154.20" r="157.28" fill="#525152" />
  <path d="M 231.00,64.00 218.00,57.00 215.00,57.00 212.00,55.00 209.00,55.00 208.00,54.00 196.00,53.00 195.00,52.00 109.00,52.00 108.00,53.00 104.00,53.00 99.00,55.00 92.00,61.00 89.00,66.00 89.00,68.00 87.00,72.00 87.00,248.00 88.00,249.00 88.00,251.00 91.00,255.00 98.00,258.00 106.00,257.00 111.00,253.00 113.00,249.00 113.00,182.00 114.00,181.00 114.00,179.00 116.00,177.00 195.00,177.00 196.00,176.00 203.00,176.00 204.00,175.00 211.00,174.00 212.00,173.00 217.00,172.00 220.00,170.00 222.00,170.00 234.00,162.00 243.00,153.00 247.00,147.00 253.00,133.00 254.00,124.00 255.00,123.00 255.00,106.00 254.00,105.00 253.00,95.00 246.00,79.00 243.00,75.00 Z M 114.00,80.00 118.00,76.00 192.00,76.00 193.00,77.00 202.00,78.00 205.00,80.00 207.00,80.00 217.00,86.00 223.00,93.00 226.00,99.00 227.00,106.00 228.00,107.00 228.00,122.00 227.00,123.00 226.00,129.00 221.00,138.00 215.00,144.00 204.00,150.00 198.00,151.00 197.00,152.00 193.00,152.00 192.00,153.00 115.00,153.00 113.00,151.00 113.00,113.00 114.00,112.00 113.00,111.00 113.00,89.00 114.00,88.00 113.00,86.00 114.00,85.00 Z" fill="#fc8cf6" fill-rule="evenodd"/>
</svg>
