<?xml version="1.0" encoding="UTF-8"?>
<svg xmlns="http://www.w3.org/2000/svg" width="323" height="324" viewBox="0 0 323 324">
  <circle cx="159.00" cy="161.40" r="157.28" fill="#535153" />
  <path d="M 69.00,60.00 65.00,62.00 61.00,66.00 58.00,72.00 58.00,75.00 57.00,76.00 57.00,85.00 56.00,86.00 57.00,87.00 57.00,90.00 56.00,91.00 56.00,96.00 57.00,97.00 57.00,107.00 56.00,108.00 57.00,109.00 57.00,113.00 56.00,114.00 57.00,116.00 57.00,125.00 56.00,126.00 57.00,127.00 56.00,129.00 57.00,131.00 56.00,133.00 56.00,135.00 57.00,136.00 56.00,137.00 57.00,138.00 57.00,140.00 56.00,141.00 57.00,142.00 56.00,143.00 57.00,144.00 56.00,145.00 56.00,148.00 57.00,149.00 57.00,158.00 56.00,159.00 56.00,163.00 57.00,164.00 56.00,165.00 57.00,166.00 56.00,167.00 56.00,181.00 57.00,182.00 56.00,183.00 56.00,190.00 57.00,191.00 57.00,205.00 56.00,206.00 57.00,207.00 56.00,208.00 57.00,209.00 56.00,210.00 57.00,211.00 57.00,216.00 56.00,217.00 56.00,224.00 57.00,225.00 56.00,226.00 57.00,227.00 56.00,233.00 57.00,234.00 57.00,239.00 56.00,240.00 57.00,241.00 57.00,252.00 56.00,254.00 57.00,255.00 56.00,256.00 57.00,257.00 57.00,261.00 58.00,263.00 62.00,266.00 68.00,266.00 70.00,265.00 73.00,261.00 73.00,256.00 74.00,255.00 73.00,254.00 73.00,186.00 74.00,185.00 73.00,182.00 74.00,181.00 74.00,174.00 76.00,172.00 117.00,172.00 118.00,173.00 120.00,173.00 125.00,177.00 130.00,186.00 130.00,189.00 132.00,194.00 132.00,201.00 133.00,202.00 133.00,207.00 134.00,208.00 134.00,215.00 135.00,216.00 135.00,222.00 136.00,223.00 136.00,230.00 137.00,231.00 137.00,236.00 138.00,237.00 138.00,243.00 139.00,244.00 139.00,250.00 140.00,251.00 140.00,256.00 141.00,257.00 141.00,259.00 145.00,265.00 147.00,266.00 154.00,266.00 158.00,262.00 159.00,256.00 158.00,255.00 158.00,250.00 157.00,249.00 157.00,245.00 156.00,244.00 156.00,240.00 155.00,239.00 155.00,235.00 154.00,234.00 154.00,228.00 153.00,227.00 153.00,221.00 152.00,220.00 152.00,213.00 151.00,212.00 151.00,206.00 150.00,205.00 150.00,198.00 149.00,197.00 149.00,190.00 148.00,189.00 148.00,185.00 147.00,184.00 145.00,174.00 138.00,162.00 147.00,147.00 147.00,145.00 150.00,138.00 151.00,129.00 152.00,128.00 152.00,116.00 153.00,115.00 153.00,112.00 152.00,111.00 152.00,100.00 151.00,99.00 151.00,95.00 150.00,94.00 150.00,91.00 149.00,90.00 149.00,87.00 147.00,84.00 147.00,82.00 143.00,75.00 138.00,69.00 137.00,69.00 133.00,65.00 124.00,61.00 121.00,61.00 120.00,60.00 Z M 76.00,83.00 118.00,83.00 123.00,85.00 130.00,92.00 134.00,100.00 134.00,104.00 135.00,105.00 135.00,125.00 134.00,126.00 134.00,130.00 130.00,140.00 123.00,147.00 118.00,149.00 113.00,149.00 112.00,150.00 77.00,150.00 74.00,147.00 74.00,137.00 73.00,136.00 73.00,126.00 74.00,125.00 74.00,121.00 73.00,120.00 74.00,118.00 73.00,117.00 74.00,116.00 73.00,115.00 73.00,108.00 74.00,107.00 74.00,85.00 Z M 220.00,55.00 219.00,56.00 214.00,56.00 213.00,57.00 208.00,58.00 198.00,64.00 188.00,74.00 184.00,80.00 177.00,94.00 177.00,96.00 174.00,103.00 174.00,106.00 172.00,110.00 171.00,118.00 170.00,119.00 170.00,123.00 169.00,124.00 169.00,128.00 168.00,129.00 167.00,146.00 166.00,147.00 166.00,177.00 167.00,178.00 168.00,196.00 169.00,197.00 169.00,201.00 170.00,202.00 170.00,207.00 172.00,211.00 172.00,215.00 173.00,216.00 176.00,227.00 178.00,230.00 178.00,232.00 185.00,245.00 190.00,252.00 196.00,258.00 203.00,263.00 207.00,265.00 209.00,265.00 212.00,267.00 227.00,269.00 228.00,268.00 235.00,268.00 247.00,263.00 260.00,251.00 266.00,242.00 271.00,232.00 271.00,230.00 273.00,226.00 273.00,223.00 274.00,222.00 274.00,216.00 273.00,215.00 273.00,213.00 267.00,208.00 264.00,208.00 260.00,210.00 258.00,212.00 256.00,216.00 256.00,218.00 249.00,231.00 239.00,240.00 235.00,242.00 228.00,243.00 227.00,244.00 218.00,243.00 209.00,239.00 200.00,230.00 196.00,224.00 190.00,211.00 189.00,205.00 187.00,201.00 187.00,197.00 186.00,196.00 186.00,192.00 185.00,191.00 185.00,185.00 184.00,184.00 184.00,174.00 183.00,173.00 183.00,153.00 184.00,152.00 184.00,141.00 185.00,140.00 185.00,134.00 186.00,133.00 186.00,129.00 187.00,128.00 187.00,124.00 188.00,123.00 189.00,116.00 190.00,115.00 191.00,110.00 194.00,105.00 194.00,103.00 200.00,93.00 209.00,84.00 217.00,80.00 223.00,80.00 224.00,79.00 226.00,79.00 227.00,80.00 232.00,80.00 240.00,84.00 247.00,91.00 253.00,103.00 257.00,107.00 259.00,107.00 260.00,108.00 266.00,107.00 269.00,104.00 270.00,99.00 271.00,98.00 270.00,97.00 270.00,92.00 264.00,79.00 260.00,73.00 250.00,63.00 236.00,56.00 231.00,56.00 230.00,55.00 Z" fill="#f13494" fill-rule="evenodd"/>
</svg>
