<?xml version="1.0" encoding="UTF-8"?>
<svg xmlns="http://www.w3.org/2000/svg" width="323" height="324" viewBox="0 0 323 324">
  <circle cx="157.80" cy="157.80" r="155.96" fill="#515352" />
  <path d="M 124.00,54.00 123.00,55.00 115.00,57.00 98.00,66.00 89.00,74.00 84.00,81.00 81.00,87.00 81.00,89.00 79.00,93.00 79.00,96.00 78.00,97.00 78.00,115.00 82.00,126.00 84.00,128.00 85.00,131.00 94.00,140.00 112.00,150.00 114.00,150.00 117.00,152.00 123.00,153.00 127.00,155.00 130.00,155.00 131.00,156.00 135.00,156.00 136.00,157.00 145.00,158.00 150.00,160.00 155.00,160.00 156.00,161.00 160.00,161.00 161.00,162.00 165.00,162.00 166.00,163.00 170.00,163.00 171.00,164.00 178.00,165.00 179.00,166.00 187.00,168.00 190.00,170.00 192.00,170.00 200.00,174.00 211.00,184.00 214.00,190.00 214.00,192.00 215.00,193.00 215.00,206.00 211.00,216.00 202.00,225.00 194.00,229.00 192.00,231.00 190.00,231.00 187.00,233.00 185.00,233.00 181.00,235.00 173.00,236.00 172.00,237.00 147.00,237.00 146.00,236.00 141.00,236.00 140.00,235.00 133.00,234.00 127.00,231.00 125.00,231.00 110.00,223.00 93.00,205.00 89.00,203.00 82.00,203.00 77.00,205.00 74.00,208.00 72.00,213.00 73.00,220.00 76.00,226.00 81.00,231.00 81.00,232.00 94.00,243.00 112.00,253.00 114.00,253.00 117.00,255.00 119.00,255.00 123.00,257.00 126.00,257.00 131.00,259.00 135.00,259.00 136.00,260.00 142.00,260.00 143.00,261.00 156.00,261.00 157.00,262.00 158.00,261.00 160.00,262.00 161.00,261.00 181.00,260.00 182.00,259.00 186.00,259.00 187.00,258.00 190.00,258.00 191.00,257.00 199.00,255.00 212.00,249.00 221.00,243.00 230.00,234.00 238.00,221.00 238.00,219.00 240.00,215.00 240.00,212.00 241.00,211.00 241.00,207.00 242.00,206.00 242.00,193.00 241.00,192.00 240.00,182.00 238.00,179.00 238.00,177.00 232.00,167.00 224.00,159.00 217.00,154.00 205.00,148.00 194.00,145.00 191.00,143.00 188.00,143.00 187.00,142.00 184.00,142.00 179.00,140.00 175.00,140.00 174.00,139.00 170.00,139.00 165.00,137.00 160.00,137.00 155.00,135.00 150.00,135.00 145.00,133.00 141.00,133.00 140.00,132.00 133.00,131.00 132.00,130.00 124.00,128.00 113.00,122.00 106.00,114.00 105.00,109.00 104.00,108.00 104.00,101.00 108.00,92.00 116.00,84.00 128.00,78.00 130.00,78.00 134.00,76.00 143.00,75.00 144.00,74.00 171.00,74.00 172.00,75.00 176.00,75.00 177.00,76.00 181.00,76.00 182.00,77.00 187.00,78.00 199.00,85.00 209.00,96.00 216.00,100.00 224.00,100.00 228.00,98.00 232.00,93.00 232.00,90.00 233.00,89.00 232.00,84.00 228.00,77.00 215.00,65.00 207.00,61.00 205.00,59.00 203.00,59.00 198.00,56.00 196.00,56.00 192.00,54.00 189.00,54.00 184.00,52.00 180.00,52.00 179.00,51.00 173.00,51.00 172.00,50.00 147.00,50.00 146.00,51.00 138.00,51.00 137.00,52.00 133.00,52.00 132.00,53.00 Z" fill="#3ee098" fill-rule="evenodd"/>
</svg>
