<?xml version="1.0" encoding="UTF-8"?>
<svg xmlns="http://www.w3.org/2000/svg" width="323" height="324" viewBox="0 0 323 324">
  <circle cx="162.60" cy="165.00" r="157.28" fill="#53534f" />
  <path d="M 70.00,186.00 70.00,190.00 82.00,199.00 101.00,208.00 113.00,212.00 115.00,214.00 116.00,226.00 121.00,242.00 128.00,254.00 135.00,262.00 142.00,267.00 157.00,272.00 172.00,271.00 178.00,269.00 188.00,263.00 193.00,258.00 201.00,246.00 206.00,233.00 209.00,214.00 213.00,211.00 218.00,210.00 238.00,201.00 251.00,193.00 254.00,189.00 252.00,184.00 248.00,184.00 238.00,191.00 224.00,198.00 209.00,204.00 190.00,209.00 178.00,210.00 177.00,211.00 147.00,211.00 146.00,210.00 139.00,210.00 129.00,208.00 112.00,203.00 84.00,190.00 75.00,184.00 Z M 160.00,224.00 164.00,224.00 166.00,226.00 166.00,256.00 164.00,258.00 160.00,258.00 158.00,256.00 158.00,226.00 Z M 215.00,95.00 202.00,100.00 195.00,105.00 188.00,113.00 182.00,128.00 182.00,144.00 187.00,158.00 198.00,170.00 213.00,177.00 228.00,178.00 237.00,176.00 247.00,171.00 253.00,166.00 259.00,158.00 263.00,150.00 265.00,141.00 265.00,132.00 260.00,116.00 256.00,110.00 249.00,103.00 240.00,98.00 231.00,95.00 Z M 230.00,126.00 235.00,126.00 243.00,129.00 250.00,137.00 252.00,145.00 251.00,152.00 249.00,156.00 243.00,162.00 236.00,165.00 229.00,165.00 222.00,162.00 216.00,156.00 213.00,148.00 214.00,140.00 217.00,134.00 222.00,129.00 Z M 93.00,95.00 80.00,100.00 73.00,105.00 66.00,113.00 60.00,126.00 60.00,132.00 59.00,133.00 60.00,145.00 65.00,158.00 79.00,172.00 87.00,176.00 96.00,178.00 111.00,177.00 117.00,175.00 127.00,169.00 134.00,162.00 138.00,156.00 142.00,145.00 142.00,128.00 136.00,113.00 125.00,102.00 116.00,97.00 109.00,95.00 Z M 84.00,109.00 87.00,108.00 100.00,109.00 107.00,114.00 111.00,121.00 112.00,125.00 111.00,133.00 109.00,137.00 100.00,145.00 97.00,146.00 85.00,145.00 80.00,142.00 74.00,134.00 73.00,131.00 74.00,120.00 76.00,116.00 Z M 157.00,28.00 156.00,29.00 145.00,29.00 130.00,32.00 109.00,39.00 84.00,53.00 75.00,60.00 57.00,78.00 45.00,95.00 34.00,118.00 29.00,135.00 29.00,140.00 27.00,147.00 26.00,169.00 27.00,170.00 27.00,182.00 28.00,183.00 29.00,193.00 35.00,213.00 39.00,220.00 39.00,222.00 50.00,241.00 70.00,264.00 91.00,280.00 116.00,292.00 138.00,298.00 154.00,299.00 155.00,300.00 172.00,300.00 173.00,299.00 181.00,299.00 196.00,296.00 218.00,288.00 242.00,274.00 252.00,266.00 264.00,254.00 277.00,237.00 289.00,214.00 294.00,199.00 297.00,185.00 298.00,153.00 297.00,152.00 297.00,145.00 294.00,130.00 286.00,108.00 272.00,84.00 254.00,64.00 233.00,48.00 220.00,41.00 205.00,35.00 185.00,30.00 Z M 145.00,39.00 170.00,38.00 171.00,39.00 179.00,39.00 194.00,42.00 214.00,49.00 239.00,64.00 262.00,87.00 276.00,109.00 284.00,130.00 288.00,151.00 288.00,179.00 284.00,199.00 280.00,211.00 272.00,227.00 260.00,244.00 242.00,262.00 223.00,275.00 200.00,285.00 176.00,290.00 149.00,290.00 128.00,286.00 105.00,277.00 93.00,270.00 81.00,261.00 65.00,245.00 49.00,221.00 44.00,210.00 39.00,194.00 37.00,176.00 36.00,175.00 36.00,155.00 37.00,154.00 37.00,146.00 40.00,131.00 46.00,114.00 51.00,104.00 64.00,85.00 83.00,66.00 99.00,55.00 115.00,47.00 130.00,42.00 Z" fill="#fcf493" fill-rule="evenodd"/>
</svg>
