<?xml version="1.0" standalone="no"?>
<!DOCTYPE svg PUBLIC "-//W3C//DTD SVG 20010904//EN"
 "http://www.w3.org/TR/2001/REC-SVG-20010904/DTD/svg10.dtd">
<svg version="1.0" xmlns="http://www.w3.org/2000/svg"
 width="104.000000pt" height="110.000000pt"
 viewBox="0 0 104.000000 110.000000"
 preserveAspectRatio="xMidYMid meet">

  <!-- Solid fill INSIDE the circle only (outside remains transparent) -->
  <circle cx="53" cy="60" r="39" fill="#FFFF60"/>

  <g transform="translate(0.000000,110.000000) scale(0.100000,-0.100000)"
     stroke="none">

    <path
      fill="#9B9B39"
      fill-rule="evenodd"
      clip-rule="evenodd"
      d="M409 877 c-190 -65 -303 -269 -255 -457 31 -120 100 -205 211 -260
63 -32 185 -53 185 -32 0 6 -14 33 -31 61 l-31 50 -39 -19 c-21 -11 -40 -20
-43 -20 -3 0 -17 21 -32 46 l-28 47 22 18 c12 9 80 48 150 85 70 36 129 68
131 70 2 2 1 10 -3 19 -5 14 -12 12 -52 -11 l-46 -27 -19 24 c-10 13 -19 31
-19 39 0 14 256 168 264 159 13 -15 27 -56 45 -129 l21 -84 -20 -28 -21 -28
28 -49 c15 -27 31 -47 36 -44 21 13 49 104 54 174 14 187 -94 343 -274 399
-84 26 -152 25 -234 -3z m276 -113 c30 -53 35 -68 24 -76 -27 -17 -71 -39 -73
-36 -28 37 -77 132 -73 142 6 15 68 47 78 40 4 -2 24 -34 44 -70z m-133 -64
c21 -36 38 -68 38 -72 0 -13 -72 -50 -81 -41 -17 17 -79 126 -79 139 0 16 49
44 70 41 8 -1 32 -31 52 -67z m-122 -81 c24 -41 39 -77 36 -86 -4 -9 3 -32 15
-51 l21 -36 -22 -18 c-12 -10 -27 -18 -34 -18 -6 0 -41 51 -78 113 l-68 112
30 28 c17 15 36 27 44 27 8 0 33 -32 56 -71z m-96 -127 c31 -54 56 -103 56
-108 0 -13 -66 -48 -78 -40 -20 12 -122 195 -116 209 6 16 40 35 66 36 11 1
35 -32 72 -97z"/>
  </g>
</svg>
