<?xml version="1.0" encoding="UTF-8"?>
<svg version="1.1" xmlns="http://www.w3.org/2000/svg" width="44" height="44">
<path d="M0 0 C5.04885564 3.02931338 8.65629405 7.96888215 10.5 13.5 C11.72197308 29.26545596 11.72197308 29.26545596 6.5 35.5 C-0.37331562 41.79247205 -5.73031893 42.87432182 -14.98046875 42.76953125 C-20.75106966 42.32760954 -24.365947 40.8310425 -28.27734375 36.55859375 C-34.01603034 29.2265777 -34.20246058 22.6727099 -33.5 13.5 C-31.9990981 7.41035342 -28.41458662 4.15960324 -23.40234375 0.62890625 C-17.03779226 -3.14800418 -6.69128113 -2.94936081 0 0 Z " fill="#524F4D" transform="translate(33.5,1.5)"/>
<path d="M0 0 C5.88970489 0.08469708 9.17545623 0.7684104 13.8125 4.375 C16.16866475 7.90924712 16.1106228 9.56144102 16.125 13.75 C16.14175781 14.87148438 16.15851562 15.99296875 16.17578125 17.1484375 C15.7723692 20.73143051 15.02460191 22.54870275 12.8125 25.375 C9.33850982 28.00825283 5.37098058 27.67308598 1.1875 27.625 C0.506875 27.63273437 -0.17375 27.64046875 -0.875 27.6484375 C-5.93405878 27.62844122 -5.93405878 27.62844122 -8.1875 25.375 C-8.44628906 23.06835938 -8.44628906 23.06835938 -8.453125 20.21875 C-8.45570312 19.19652344 -8.45828125 18.17429687 -8.4609375 17.12109375 C-8.44933594 15.51427734 -8.44933594 15.51427734 -8.4375 13.875 C-8.44523438 12.80378906 -8.45296875 11.73257812 -8.4609375 10.62890625 C-8.45835938 9.60667969 -8.45578125 8.58445312 -8.453125 7.53125 C-8.45086914 6.59087891 -8.44861328 5.65050781 -8.44628906 4.68164062 C-7.87029592 -0.45230579 -4.32419169 0.04976055 0 0 Z " fill="#54504C" transform="translate(19.1875,6.625)"/>
<path d="M0 0 C5.04885564 3.02931338 8.65629405 7.96888215 10.5 13.5 C11.72197308 29.26545596 11.72197308 29.26545596 6.5 35.5 C-0.37331562 41.79247205 -5.73031893 42.87432182 -14.98046875 42.76953125 C-20.75106966 42.32760954 -24.365947 40.8310425 -28.27734375 36.55859375 C-34.01603034 29.2265777 -34.20246058 22.6727099 -33.5 13.5 C-31.9990981 7.41035342 -28.41458662 4.15960324 -23.40234375 0.62890625 C-17.03779226 -3.14800418 -6.69128113 -2.94936081 0 0 Z M-28.9453125 7.03515625 C-32.56470792 12.18583435 -32.42044514 18.48108915 -31.5 24.5 C-29.36322387 30.02833994 -25.53503987 34.42303119 -20.5 37.5 C-13.83680655 39.2866607 -7.99773824 38.79773588 -1.734375 35.9453125 C2.89985099 32.94764883 5.77332833 28.68001501 7.5 23.5 C8.2979107 17.08251826 7.72200054 12.49151344 3.92578125 7.1875 C0.07908388 2.63469654 -4.1812361 0.02295674 -10.078125 -0.90625 C-18.26071219 -1.19335832 -23.33452991 1.07559528 -28.9453125 7.03515625 Z " fill="#050505" transform="translate(33.5,1.5)"/>
<path d="M0 0 C5.88970489 0.08469708 9.17545623 0.7684104 13.8125 4.375 C16.16866475 7.90924712 16.1106228 9.56144102 16.125 13.75 C16.14175781 14.87148438 16.15851562 15.99296875 16.17578125 17.1484375 C15.7723692 20.73143051 15.02460191 22.54870275 12.8125 25.375 C9.33850982 28.00825283 5.37098058 27.67308598 1.1875 27.625 C0.506875 27.63273437 -0.17375 27.64046875 -0.875 27.6484375 C-5.93405878 27.62844122 -5.93405878 27.62844122 -8.1875 25.375 C-8.44628906 23.06835938 -8.44628906 23.06835938 -8.453125 20.21875 C-8.45570312 19.19652344 -8.45828125 18.17429687 -8.4609375 17.12109375 C-8.44933594 15.51427734 -8.44933594 15.51427734 -8.4375 13.875 C-8.44523438 12.80378906 -8.45296875 11.73257812 -8.4609375 10.62890625 C-8.45835938 9.60667969 -8.45578125 8.58445312 -8.453125 7.53125 C-8.45086914 6.59087891 -8.44861328 5.65050781 -8.44628906 4.68164062 C-7.87029592 -0.45230579 -4.32419169 0.04976055 0 0 Z M-4.1875 4.375 C-4.1875 10.975 -4.1875 17.575 -4.1875 24.375 C3.79832904 25.05963335 3.79832904 25.05963335 11.0625 22.5 C13.55359295 18.05161973 13.77565731 14.35403355 12.8125 9.375 C11.27401371 6.00268496 11.27401371 6.00268496 7.8125 4.375 C3.71616586 3.97548757 -0.05162714 4.14775424 -4.1875 4.375 Z " fill="#E78D33" transform="translate(19.1875,6.625)"/>
</svg>
