<?xml version="1.0" encoding="UTF-8"?>
<svg version="1.1" xmlns="http://www.w3.org/2000/svg" width="48" height="48">
<path d="M0 0 C0.85464844 -0.01417969 1.70929687 -0.02835937 2.58984375 -0.04296875 C5.23874285 0.20392706 6.82885385 0.76336319 9.0625 2.1875 C10.32487731 4.71225462 10.16106404 6.49950466 10.125 9.3125 C10.11597656 10.22257813 10.10695312 11.13265625 10.09765625 12.0703125 C10.08605469 12.76898438 10.07445312 13.46765625 10.0625 14.1875 C11.20138672 14.11789062 11.20138672 14.11789062 12.36328125 14.046875 C13.85408203 13.99273438 13.85408203 13.99273438 15.375 13.9375 C16.36113281 13.89109375 17.34726562 13.8446875 18.36328125 13.796875 C21.0625 14.1875 21.0625 14.1875 22.8984375 15.859375 C24.29972763 18.66195526 24.43077497 20.56410144 24.375 23.6875 C24.37113281 24.6259375 24.36726563 25.564375 24.36328125 26.53125 C24.05199308 29.28028838 23.67540515 30.94076951 22.0625 33.1875 C17.90402793 33.99236556 14.29529988 34.1875 10.0625 34.1875 C10.11470703 35.21810547 10.11470703 35.21810547 10.16796875 36.26953125 C10.19503906 37.17058594 10.22210938 38.07164063 10.25 39 C10.30220703 40.33998047 10.30220703 40.33998047 10.35546875 41.70703125 C10.0625 44.1875 10.0625 44.1875 8.85546875 45.9609375 C5.37270842 48.34347943 1.17559234 48.20064087 -2.9375 48.1875 C-6.24869615 47.29071771 -7.52674949 46.59825051 -9.9375 44.1875 C-10.1346417 40.04752433 -10.24515478 37.11046433 -8.9375 33.1875 C-9.93330078 33.38279297 -9.93330078 33.38279297 -10.94921875 33.58203125 C-18.06500347 34.69354799 -18.06500347 34.69354799 -22.0625 32.375 C-24.64058373 27.99225766 -24.7065804 24.16628363 -23.9375 19.1875 C-22.42933896 15.43341948 -22.42933896 15.43341948 -19.9375 14.1875 C-18.23047265 14.11753986 -16.52081997 14.10309846 -14.8125 14.125 C-13.90242187 14.13402344 -12.99234375 14.14304687 -12.0546875 14.15234375 C-11.35601562 14.16394531 -10.65734375 14.17554688 -9.9375 14.1875 C-9.96070313 13.50042969 -9.98390625 12.81335937 -10.0078125 12.10546875 C-10.02585937 11.20441406 -10.04390625 10.30335937 -10.0625 9.375 C-10.08570313 8.48167969 -10.10890625 7.58835937 -10.1328125 6.66796875 C-9.9375 4.1875 -9.9375 4.1875 -7.9375 1.1875 C-5.02663331 0.2172111 -3.03526315 0.02282153 0 0 Z " fill="#070707" transform="translate(23.9375,-0.1875)"/>
<path d="M0 0 C3.42634728 1.29296124 5.41076615 2.06258251 7.375 5.1875 C7.58125 5.785625 7.7875 6.38375 8 7 C12.63845313 6.89906515 12.63845313 6.89906515 16.484375 4.59765625 C16.94328125 4.04980469 17.4021875 3.50195312 17.875 2.9375 C19.74294038 0.81068745 20.54260035 0.07598251 23.375 -0.39453125 C25.61185687 -0.37705581 27.77982427 -0.26642109 30 0 C30 0.66 30 1.32 30 2 C27.36 2 24.72 2 22 2 C22.20625 3.258125 22.4125 4.51625 22.625 5.8125 C23.21335669 9.4014758 23.16617415 9.75073878 21 13 C20.01 12.67 19.02 12.34 18 12 C17.67 14.97 17.34 17.94 17 21 C17.99 21 18.98 21 20 21 C18.33248852 24.94139078 15.77289351 27.7892812 13 31 C8.79084368 29.59694789 7.46757605 27.13348883 5.09765625 23.5 C3.84805825 20.65394049 3.85572068 19.40850979 4.625 16.4375 C5.07875 15.303125 5.5325 14.16875 6 13 C5.01 13.66 4.02 14.32 3 15 C0.37109375 15.30078125 0.37109375 15.30078125 -2.5625 15.3125 C-3.53316406 15.32925781 -4.50382813 15.34601562 -5.50390625 15.36328125 C-6.32761719 15.24339844 -7.15132813 15.12351562 -8 15 C-10.06520632 11.90219052 -10.29477024 11.0459519 -10.3125 7.5 C-10.32925781 6.7265625 -10.34601562 5.953125 -10.36328125 5.15625 C-9.38292669 -0.66262867 -5.06314782 -0.51489639 0 0 Z " fill="#3F3F3E" transform="translate(12,16)"/>
<path d="M0 0 C0.9590625 -0.01933594 1.918125 -0.03867188 2.90625 -0.05859375 C5.5 0.4375 5.5 0.4375 7.32421875 2.12109375 C8.74443473 4.91906079 8.86834299 6.81029275 8.8125 9.9375 C8.80863281 10.8759375 8.80476563 11.814375 8.80078125 12.78125 C8.48949308 15.53028838 8.11290515 17.19076951 6.5 19.4375 C2.34152793 20.24236556 -1.26720012 20.4375 -5.5 20.4375 C-5.46519531 21.12457031 -5.43039063 21.81164062 -5.39453125 22.51953125 C-5.36746094 23.42058594 -5.34039062 24.32164063 -5.3125 25.25 C-5.27769531 26.14332031 -5.24289063 27.03664063 -5.20703125 27.95703125 C-5.5 30.4375 -5.5 30.4375 -6.875 32.28125 C-8.5 33.4375 -8.5 33.4375 -10.6875 33.125 C-11.285625 32.898125 -11.88375 32.67125 -12.5 32.4375 C-11.5409375 31.880625 -11.5409375 31.880625 -10.5625 31.3125 C-7.86141928 28.85697207 -7.81592995 26.99171195 -7.5 23.4375 C-8.49 23.4375 -9.48 23.4375 -10.5 23.4375 C-10.5 20.1375 -10.5 16.8375 -10.5 13.4375 C-9.18 13.7675 -7.86 14.0975 -6.5 14.4375 C-5.74572703 9.45843741 -5.74572703 9.45843741 -5.5 4.4375 C-2.86 4.4375 -0.22 4.4375 2.5 4.4375 C2.5 3.7775 2.5 3.1175 2.5 2.4375 C-1.13 2.7675 -4.76 3.0975 -8.5 3.4375 C-5.11065389 0.04815389 -4.54489257 0.00610873 0 0 Z " fill="#010101" transform="translate(39.5,13.5625)"/>
<path d="M0 0 C2.97 0 5.94 0 9 0 C9 4.29 9 8.58 9 13 C9.99 13 10.98 13 12 13 C10.33248852 16.94139078 7.77289351 19.7892812 5 23 C0.76595563 21.58865188 -0.5274203 19.02001816 -2.90234375 15.3671875 C-4 13 -4 13 -3.375 9.4375 C-2.92125 8.633125 -2.4675 7.82875 -2 7 C-1.34 7 -0.68 7 0 7 C0 4.69 0 2.38 0 0 Z " fill="#F9A616" transform="translate(20,24)"/>
<path d="M0 0 C2.25390625 1.01953125 2.25390625 1.01953125 4 2 C4.77603583 11.84703247 4.77603583 11.84703247 1.8125 16.25 C-1 18 -1 18 -3.5625 18.0625 C-6.70045532 16.69467332 -8.0441828 15.86387518 -10 13 C-10.80491785 9.65986469 -11.31495203 6.43011391 -11 3 C-8.26032704 -0.92115692 -4.40794798 -0.65146256 0 0 Z " fill="#4E4E4E" transform="translate(27,2)"/>
<path d="M0 0 C2.30122818 1.72592113 3.83207557 3.02955298 4.3359375 5.94140625 C4.40673863 9.78590748 4.15816291 11.76275563 2 15 C-0.6015625 15.29296875 -0.6015625 15.29296875 -3.625 15.1875 C-5.12933594 15.14689453 -5.12933594 15.14689453 -6.6640625 15.10546875 C-7.43492188 15.07066406 -8.20578125 15.03585938 -9 15 C-9 11.58846202 -8.48210431 8.37473015 -8 5 C-8 4.01 -8 3.02 -8 2 C-5.36 2 -2.72 2 0 2 C0 1.34 0 0.68 0 0 Z " fill="#262626" transform="translate(42,16)"/>
<path d="M0 0 C0.85464844 -0.01417969 1.70929687 -0.02835937 2.58984375 -0.04296875 C5.23874285 0.20392706 6.82885385 0.76336319 9.0625 2.1875 C10.26522819 4.59295638 10.16321472 6.13746953 10.125 8.8125 C10.11597656 9.62976562 10.10695313 10.44703125 10.09765625 11.2890625 C10.08605469 11.91554688 10.07445313 12.54203125 10.0625 13.1875 C9.0725 13.6825 9.0725 13.6825 8.0625 14.1875 C8.03671875 13.56101562 8.0109375 12.93453125 7.984375 12.2890625 C7.92765625 11.47179688 7.8709375 10.65453125 7.8125 9.8125 C7.76609375 9.00039062 7.7196875 8.18828125 7.671875 7.3515625 C7.26856577 5.05248932 7.26856577 5.05248932 5.2734375 3.9140625 C1.70004603 2.73976778 -1.17879447 2.94500287 -4.9375 3.1875 C-7.33513185 5.58513185 -7.28030586 6.52023498 -7.5625 9.8125 C-7.63726563 10.62976562 -7.71203125 11.44703125 -7.7890625 12.2890625 C-7.83804687 12.91554688 -7.88703125 13.54203125 -7.9375 14.1875 C-10.54454898 11.58045102 -10.17655333 9.71411759 -10.203125 6.16015625 C-9.9375 4.1875 -9.9375 4.1875 -7.9375 1.1875 C-5.02663331 0.2172111 -3.03526315 0.02282153 0 0 Z " fill="#030303" transform="translate(23.9375,-0.1875)"/>
<path d="M0 0 C0.33 0.66 0.66 1.32 1 2 C1.8971875 2.37125 1.8971875 2.37125 2.8125 2.75 C5.89654517 4.51231152 7.18036231 7.01059522 9 10 C12.14349841 8.9521672 12.73251185 8.42086332 14.6875 5.9375 C15.450625 4.968125 16.21375 3.99875 17 3 C17.8125 4.6875 17.8125 4.6875 18 7 C16.1875 9.8125 16.1875 9.8125 13 12 C8.81724836 12.33914203 4.68319143 12.22113888 1.20703125 9.69921875 C-0.94976242 6.66295582 -0.17788713 3.61703839 0 0 Z " fill="#030202" transform="translate(14,36)"/>
<path d="M0 0 C1.32 0.99 2.64 1.98 4 3 C6.57873609 3.56984448 6.57873609 3.56984448 9.25 3.6875 C10.14203125 3.75324219 11.0340625 3.81898437 11.953125 3.88671875 C12.62859375 3.92410156 13.3040625 3.96148438 14 4 C14 4.33 14 4.66 14 5 C11.03 5.66 8.06 6.32 5 7 C5.03480469 7.68707031 5.06960937 8.37414063 5.10546875 9.08203125 C5.13253906 9.98308594 5.15960938 10.88414063 5.1875 11.8125 C5.22230469 12.70582031 5.25710937 13.59914063 5.29296875 14.51953125 C5 17 5 17 3.625 18.84375 C2 20 2 20 -0.1875 19.6875 C-0.785625 19.460625 -1.38375 19.23375 -2 19 C-1.0409375 18.443125 -1.0409375 18.443125 -0.0625 17.875 C2.63858072 15.41947207 2.68407005 13.55421195 3 10 C2.01 10 1.02 10 0 10 C0 6.7 0 3.4 0 0 Z " fill="#100F0F" transform="translate(29,27)"/>
<path d="M0 0 C0.91007812 0.00902344 1.82015625 0.01804687 2.7578125 0.02734375 C3.45648438 0.03894531 4.15515625 0.05054688 4.875 0.0625 C5.205 1.3825 5.535 2.7025 5.875 4.0625 C3.62331203 6.14739627 2.49763575 7.0625 -0.625 7.0625 C-3.87253145 5.76348742 -5.16164044 3.8984638 -7.125 1.0625 C-4.60024538 -0.19987731 -2.81299534 -0.03606404 0 0 Z " fill="#2F2F2F" transform="translate(24.125,12.9375)"/>
<path d="M0 0 C1.21236328 0.04060547 1.21236328 0.04060547 2.44921875 0.08203125 C3.06410156 0.11683594 3.67898437 0.15164063 4.3125 0.1875 C4.3125 0.8475 4.3125 1.5075 4.3125 2.1875 C1.6725 2.1875 -0.9675 2.1875 -3.6875 2.1875 C-3.48125 3.445625 -3.275 4.70375 -3.0625 6 C-2.47414331 9.5889758 -2.52132585 9.93823878 -4.6875 13.1875 C-5.3475 13.1875 -6.0075 13.1875 -6.6875 13.1875 C-6.3575 10.5475 -6.0275 7.9075 -5.6875 5.1875 C-7.6675 6.1775 -7.6675 6.1775 -9.6875 7.1875 C-7.45089065 2.19814067 -5.70862614 -0.24820114 0 0 Z " fill="#666666" transform="translate(37.6875,15.8125)"/>
<path d="M0 0 C2.97 0 5.94 0 9 0 C9 4.29 9 8.58 9 13 C8.67 13 8.34 13 8 13 C8 9.04 8 5.08 8 1 C5.69 1 3.38 1 1 1 C1 5.29 1 9.58 1 14 C-0.32 14.33 -1.64 14.66 -3 15 C-4 13 -4 13 -3.0625 9.875 C-2.711875 8.92625 -2.36125 7.9775 -2 7 C-1.34 7 -0.68 7 0 7 C0 4.69 0 2.38 0 0 Z " fill="#9D8061" transform="translate(20,24)"/>
<path d="M0 0 C1.98 0 3.96 0 6 0 C6 2.64 6 5.28 6 8 C4.02 8 2.04 8 0 8 C0 5.36 0 2.72 0 0 Z " fill="#EA5301" transform="translate(21,25)"/>
<path d="M0 0 C1.98 0 3.96 0 6 0 C6.38133299 1.9914056 6.71325582 3.99279077 7 6 C6 7 6 7 3.93359375 7.09765625 C3.10988281 7.08605469 2.28617188 7.07445312 1.4375 7.0625 C0.61121094 7.05347656 -0.21507812 7.04445313 -1.06640625 7.03515625 C-1.70449219 7.02355469 -2.34257812 7.01195312 -3 7 C-3 6.34 -3 5.68 -3 5 C-2.01 5 -1.02 5 0 5 C0 3.35 0 1.7 0 0 Z " fill="#FB7601" transform="translate(21,33)"/>
<path d="M0 0 C0.66 0 1.32 0 2 0 C2 1.98 2 3.96 2 6 C1.01 6 0.02 6 -1 6 C-1 5.01 -1 4.02 -1 3 C-3.97 3 -6.94 3 -10 3 C-10 2.67 -10 2.34 -10 2 C-9.04287109 1.90912109 -9.04287109 1.90912109 -8.06640625 1.81640625 C-6.82697266 1.69072266 -6.82697266 1.69072266 -5.5625 1.5625 C-4.73878906 1.48128906 -3.91507813 1.40007813 -3.06640625 1.31640625 C-1.01337975 1.21069185 -1.01337975 1.21069185 0 0 Z " fill="#444341" transform="translate(30,21)"/>
<path d="M0 0 C0.8125 1.6875 0.8125 1.6875 1 4 C-1.1875 6.8125 -1.1875 6.8125 -4 9 C-6.3125 8.8125 -6.3125 8.8125 -8 8 C-5.33333333 5.33333333 -2.66666667 2.66666667 0 0 Z " fill="#44443F" transform="translate(31,39)"/>
<path d="M0 0 C0.33 0 0.66 0 1 0 C1.3633218 6.41868512 1.3633218 6.41868512 -0.25 9 C-2 10 -2 10 -4.1875 9.6875 C-4.785625 9.460625 -5.38375 9.23375 -6 9 C-5.38125 8.62875 -4.7625 8.2575 -4.125 7.875 C-1.4489404 5.51377094 -0.9063156 3.39868348 0 0 Z " fill="#010000" transform="translate(33,37)"/>
<path d="M0 0 C0.33 0 0.66 0 1 0 C1 3.96 1 7.92 1 12 C2.32 12 3.64 12 5 12 C4.34 13.32 3.68 14.64 3 16 C1.51171875 14.91796875 1.51171875 14.91796875 0 13 C-0.29296875 9.86328125 -0.29296875 9.86328125 -0.1875 6.3125 C-0.16042969 5.13300781 -0.13335938 3.95351563 -0.10546875 2.73828125 C-0.07066406 1.83464844 -0.03585938 0.93101563 0 0 Z " fill="#E79B4B" transform="translate(27,25)"/>
<path d="M0 0 C1.98 0 3.96 0 6 0 C6 1.32 6 2.64 6 4 C4.02 4 2.04 4 0 4 C0 2.68 0 1.36 0 0 Z " fill="#D42F01" transform="translate(21,25)"/>
<path d="M0 0 C0 0.99 0 1.98 0 3 C-2.97 3 -5.94 3 -9 3 C-9 2.34 -9 1.68 -9 1 C-5.8035914 -0.06546953 -3.34252724 -0.07427838 0 0 Z " fill="#FE9207" transform="translate(27,37)"/>
<path d="M0 0 C1.39195915 4.17587745 -0.17676781 6.13474776 -2 10 C-2.33 10 -2.66 10 -3 10 C-3.75 7.25 -3.75 7.25 -4 4 C-2.0625 1.625 -2.0625 1.625 0 0 Z " fill="#0B0A0A" transform="translate(18,28)"/>
<path d="M0 0 C4.875 4.75 4.875 4.75 6 7 C3.13275314 6.42655063 2.1385485 6.1385485 0 4 C0 2.68 0 1.36 0 0 Z " fill="#403F3A" transform="translate(16,38)"/>
<path d="M0 0 C-0.66 1.32 -1.32 2.64 -2 4 C-2.99 3.67 -3.98 3.34 -5 3 C-5.33 2.01 -5.66 1.02 -6 0 C-3.50907189 -1.24546405 -2.58919267 -0.7767578 0 0 Z " fill="#E8BA3E" transform="translate(27,43)"/>
</svg>
