<?xml version="1.0" encoding="UTF-8"?>
<svg version="1.1" xmlns="http://www.w3.org/2000/svg" width="48" height="48">
<path d="M0 0 C0.85464844 -0.01417969 1.70929687 -0.02835937 2.58984375 -0.04296875 C5.23874285 0.20392706 6.82885385 0.76336319 9.0625 2.1875 C10.32487731 4.71225462 10.16106404 6.49950466 10.125 9.3125 C10.11597656 10.22257813 10.10695312 11.13265625 10.09765625 12.0703125 C10.08605469 12.76898438 10.07445312 13.46765625 10.0625 14.1875 C11.20138672 14.11789062 11.20138672 14.11789062 12.36328125 14.046875 C13.85408203 13.99273438 13.85408203 13.99273438 15.375 13.9375 C16.36113281 13.89109375 17.34726562 13.8446875 18.36328125 13.796875 C21.0625 14.1875 21.0625 14.1875 22.90234375 15.8515625 C24.31618994 18.69829659 24.39783962 20.64639994 24.3125 23.8125 C24.29703125 24.77414063 24.2815625 25.73578125 24.265625 26.7265625 C24.0625 29.1875 24.0625 29.1875 23.0625 31.1875 C22.9908265 33.73907655 22.96941558 36.26222971 23 38.8125 C23.00451172 39.51890625 23.00902344 40.2253125 23.01367188 40.953125 C23.02546125 42.69795275 23.04339676 44.442737 23.0625 46.1875 C21.50789063 46.15269531 21.50789063 46.15269531 19.921875 46.1171875 C18.55209056 46.09842333 17.1822983 46.08022382 15.8125 46.0625 C15.13058594 46.04574219 14.44867188 46.02898438 13.74609375 46.01171875 C9.9223825 45.97459534 7.36040194 46.26682573 4.0625 48.1875 C-0.47793062 48.51771314 -3.86819617 48.28028483 -7.9375 46.1875 C-9.9375 44.1875 -9.9375 44.1875 -10.125 40.25 C-10.09940316 37.51113845 -9.82414156 35.84742468 -8.9375 33.1875 C-9.93330078 33.38279297 -9.93330078 33.38279297 -10.94921875 33.58203125 C-18.06500347 34.69354799 -18.06500347 34.69354799 -22.0625 32.375 C-24.64058373 27.99225766 -24.7065804 24.16628363 -23.9375 19.1875 C-22.42933896 15.43341948 -22.42933896 15.43341948 -19.9375 14.1875 C-18.23047265 14.11753986 -16.52081997 14.10309846 -14.8125 14.125 C-13.90242187 14.13402344 -12.99234375 14.14304687 -12.0546875 14.15234375 C-11.35601562 14.16394531 -10.65734375 14.17554688 -9.9375 14.1875 C-9.96070313 13.50042969 -9.98390625 12.81335937 -10.0078125 12.10546875 C-10.02585937 11.20441406 -10.04390625 10.30335937 -10.0625 9.375 C-10.08570313 8.48167969 -10.10890625 7.58835937 -10.1328125 6.66796875 C-9.9375 4.1875 -9.9375 4.1875 -7.9375 1.1875 C-5.02663331 0.2172111 -3.03526315 0.02282153 0 0 Z M-0.9375 23.1875 C-0.9375 23.8475 -0.9375 24.5075 -0.9375 25.1875 C-0.2775 25.1875 0.3825 25.1875 1.0625 25.1875 C1.0625 24.5275 1.0625 23.8675 1.0625 23.1875 C0.4025 23.1875 -0.2575 23.1875 -0.9375 23.1875 Z " fill="#060605" transform="translate(23.9375,-0.1875)"/>
<path d="M0 0 C3.76358277 1.44753184 5.8057836 3.8414195 8.33984375 6.85546875 C8.88769531 7.23316406 9.43554688 7.61085938 10 8 C11.65 7.67 13.3 7.34 15 7 C15.33 11.29 15.66 15.58 16 20 C5.42254098 20.12592213 5.42254098 20.12592213 1 19 C0.67 19.33 0.34 19.66 0 20 C-2.67058851 20.14115161 -5.32432238 20.04247107 -8 20 C-8 19.67 -8 19.34 -8 19 C-4.04 18.505 -4.04 18.505 0 18 C0 16.35 0 14.7 0 13 C1.32 14.32 2.64 15.64 4 17 C1.53974941 12.48954059 -1.60282037 8.81495577 -5 5 C-3.35 3.35 -1.7 1.7 0 0 Z " fill="#FC9F0B" transform="translate(30,25)"/>
<path d="M0 0 C2.3046875 0.56640625 2.3046875 0.56640625 4.09765625 2.34765625 C5.39527362 4.73292054 5.63145809 5.95181597 5.4921875 8.62890625 C5.3229496 12.18290221 5.25436719 15.24561425 5.8046875 18.75390625 C6.33205638 22.77509397 6.37571599 26.51778241 6.3046875 30.56640625 C4.6546875 30.56640625 3.0046875 30.56640625 1.3046875 30.56640625 C2.6246875 30.23640625 3.9446875 29.90640625 5.3046875 29.56640625 C5.0571875 28.57640625 5.0571875 28.57640625 4.8046875 27.56640625 C4.18285451 23.83540831 4.24059824 20.34767247 4.3046875 16.56640625 C2.6546875 17.22640625 1.0046875 17.88640625 -0.6953125 18.56640625 C-1.47455078 17.71755859 -1.47455078 17.71755859 -2.26953125 16.8515625 C-2.96691406 16.11808594 -3.66429687 15.38460938 -4.3828125 14.62890625 C-5.40955078 13.53255859 -5.40955078 13.53255859 -6.45703125 12.4140625 C-8.93068882 10.37210782 -10.54574891 9.91390626 -13.6953125 9.56640625 C-13.37431776 6.67745359 -12.45490291 5.22517973 -10.7578125 2.81640625 C-6.95313011 0.02112939 -4.59832289 0.00698833 0 0 Z " fill="#272727" transform="translate(40.6953125,15.43359375)"/>
<path d="M0 0 C3.45334405 1.39461971 6.91152171 2.80585673 9 6 C9 9.32535714 8.21646066 10.73303185 6.125 13.3125 C1.62473328 15.74264403 -2.97631134 15.89795401 -8 15 C-10.06520632 11.90219052 -10.29477024 11.0459519 -10.3125 7.5 C-10.32925781 6.7265625 -10.34601562 5.953125 -10.36328125 5.15625 C-9.38292669 -0.66262867 -5.06314782 -0.51489639 0 0 Z " fill="#3F3F3F" transform="translate(12,16)"/>
<path d="M0 0 C2.25390625 1.01953125 2.25390625 1.01953125 4 2 C4.77603583 11.84703247 4.77603583 11.84703247 1.8125 16.25 C-1 18 -1 18 -3.5625 18.0625 C-6.70045532 16.69467332 -8.0441828 15.86387518 -10 13 C-10.80491785 9.65986469 -11.31495203 6.43011391 -11 3 C-8.26032704 -0.92115692 -4.40794798 -0.65146256 0 0 Z " fill="#4E4E4E" transform="translate(27,2)"/>
<path d="M0 0 C0.721875 0.268125 1.44375 0.53625 2.1875 0.8125 C1.8575 1.8025 1.5275 2.7925 1.1875 3.8125 C1.765 4.35519531 2.3425 4.89789063 2.9375 5.45703125 C3.68 6.17246094 4.4225 6.88789062 5.1875 7.625 C6.30125 8.68654297 6.30125 8.68654297 7.4375 9.76953125 C9.1875 11.8125 9.1875 11.8125 9.1875 14.8125 C8.1975 14.4825 7.2075 14.1525 6.1875 13.8125 C4.10890082 16.07574284 4.10890082 16.07574284 3.1875 18.8125 C-4.49671053 19.10804656 -4.49671053 19.10804656 -7.8125 16.8125 C-9.68053101 13.07643799 -8.71926808 8.77495231 -7.8125 4.8125 C-4.21699438 -0.28113296 -4.21699438 -0.28113296 0 0 Z " fill="#191918" transform="translate(24.8125,27.1875)"/>
<path d="M0 0 C0.33 4.29 0.66 8.58 1 13 C-9.57745902 13.12592213 -9.57745902 13.12592213 -14 12 C-14.33 12.33 -14.66 12.66 -15 13 C-17.67058851 13.14115161 -20.32432238 13.04247107 -23 13 C-23 12.67 -23 12.34 -23 12 C-20.36 11.67 -17.72 11.34 -15 11 C-15 9.35 -15 7.7 -15 6 C-13.68 7.32 -12.36 8.64 -11 10 C-11.33 8.68 -11.66 7.36 -12 6 C-11.34 6 -10.68 6 -10 6 C-9.67 7.65 -9.34 9.3 -9 11 C-6.36 11 -3.72 11 -1 11 C-1.33 8.36 -1.66 5.72 -2 3 C-3.32 3 -4.64 3 -6 3 C-4.60722783 0.21445565 -3.01148006 0 0 0 Z " fill="#948657" transform="translate(45,32)"/>
<path d="M0 0 C3.36720387 1.39332574 4.9859524 2.9789286 7 6 C6.401875 6.268125 5.80375 6.53625 5.1875 6.8125 C3.02775192 7.98493467 1.64209744 9.19369282 0 11 C-1.65 9.02 -3.3 7.04 -5 5 C-3.35 3.35 -1.7 1.7 0 0 Z " fill="#E66D22" transform="translate(30,25)"/>
<path d="M0 0 C0.721875 0.268125 1.44375 0.53625 2.1875 0.8125 C1.8575 1.8025 1.5275 2.7925 1.1875 3.8125 C2.1775 5.2975 2.1775 5.2975 3.1875 6.8125 C0.2175 6.8125 -2.7525 6.8125 -5.8125 6.8125 C-6.1425 9.4525 -6.4725 12.0925 -6.8125 14.8125 C-7.4725 14.8125 -8.1325 14.8125 -8.8125 14.8125 C-8.70241726 9.65862621 -8.59514042 5.92124059 -5.5625 1.625 C-2.8125 -0.1875 -2.8125 -0.1875 0 0 Z " fill="#5A5A59" transform="translate(24.8125,27.1875)"/>
<path d="M0 0 C0.9590625 -0.01933594 1.918125 -0.03867188 2.90625 -0.05859375 C5.5 0.4375 5.5 0.4375 7.328125 2.11328125 C8.76103355 4.95521655 8.83543648 6.89280656 8.75 10.0625 C8.73453125 11.02414063 8.7190625 11.98578125 8.703125 12.9765625 C8.5 15.4375 8.5 15.4375 7.5 17.4375 C6.51 17.1075 5.52 16.7775 4.5 16.4375 C4.83 15.7775 5.16 15.1175 5.5 14.4375 C5.96588282 8.55584264 5.96588282 8.55584264 3.5 3.4375 C0.60391601 3.07251966 0.60391601 3.07251966 -2.625 3.25 C-3.72070312 3.27707031 -4.81640625 3.30414062 -5.9453125 3.33203125 C-7.20988281 3.38423828 -7.20988281 3.38423828 -8.5 3.4375 C-5.96140723 0.20422475 -4.02317789 0.0054075 0 0 Z " fill="#020101" transform="translate(39.5,13.5625)"/>
<path d="M0 0 C0.91007812 0.00902344 1.82015625 0.01804687 2.7578125 0.02734375 C3.45648438 0.03894531 4.15515625 0.05054688 4.875 0.0625 C5.205 1.3825 5.535 2.7025 5.875 4.0625 C3.62331203 6.14739627 2.49763575 7.0625 -0.625 7.0625 C-3.87253145 5.76348742 -5.16164044 3.8984638 -7.125 1.0625 C-4.60024538 -0.19987731 -2.81299534 -0.03606404 0 0 Z " fill="#2F2F2F" transform="translate(24.125,12.9375)"/>
<path d="M0 0 C0.33 0 0.66 0 1 0 C1.06058594 0.69867187 1.12117187 1.39734375 1.18359375 2.1171875 C1.26738281 3.02726562 1.35117187 3.93734375 1.4375 4.875 C1.55931641 6.23238281 1.55931641 6.23238281 1.68359375 7.6171875 C1.86989285 10.01110861 1.86989285 10.01110861 3 12 C5.58605332 12.4683265 5.58605332 12.4683265 8.5625 12.625 C9.57441406 12.69976562 10.58632812 12.77453125 11.62890625 12.8515625 C12.80259766 12.92503906 12.80259766 12.92503906 14 13 C13.67 13.66 13.34 14.32 13 15 C10.00355338 15.93484182 7.12751491 16.19115541 4 16 C0.9375 14.1875 0.9375 14.1875 -1 11 C-1.44441703 7.61720212 -1.43863984 4.38379303 -1 1 C-0.67 0.67 -0.34 0.34 0 0 Z " fill="#030202" transform="translate(1,18)"/>
<path d="M0 0 C1.21236328 0.04060547 1.21236328 0.04060547 2.44921875 0.08203125 C3.06410156 0.11683594 3.67898437 0.15164063 4.3125 0.1875 C4.3125 0.8475 4.3125 1.5075 4.3125 2.1875 C1.6725 2.1875 -0.9675 2.1875 -3.6875 2.1875 C-3.6875 4.4975 -3.6875 6.8075 -3.6875 9.1875 C-4.3475 8.8575 -5.0075 8.5275 -5.6875 8.1875 C-5.6875 7.1975 -5.6875 6.2075 -5.6875 5.1875 C-7.6675 6.1775 -7.6675 6.1775 -9.6875 7.1875 C-7.45089065 2.19814067 -5.70862614 -0.24820114 0 0 Z " fill="#6E6D6D" transform="translate(37.6875,15.8125)"/>
<path d="M0 0 C2.31 0 4.62 0 7 0 C7.84681133 5.08086796 8.09038099 9.84828377 8 15 C6.35 15 4.7 15 3 15 C4.32 14.67 5.64 14.34 7 14 C6.835 13.34 6.67 12.68 6.5 12 C5.87816701 8.26900206 5.93591074 4.78126622 6 1 C4.35 1.66 2.7 2.32 1 3 C0.67 2.01 0.34 1.02 0 0 Z " fill="#181816" transform="translate(39,31)"/>
<path d="M0 0 C0.33 0.99 0.66 1.98 1 3 C1.66 2.01 2.32 1.02 3 0 C3 1.65 3 3.3 3 5 C0.16032769 5 -2.23735711 4.59732819 -5 4 C-4.67 3.01 -4.34 2.02 -4 1 C-2 0 -2 0 0 0 Z " fill="#484946" transform="translate(32,21)"/>
<path d="M0 0 C0.66 1.32 1.32 2.64 2 4 C1.34 4.66 0.68 5.32 0 6 C-2.625 5.625 -2.625 5.625 -5 5 C-4.1875 3.0625 -4.1875 3.0625 -3 1 C-2.01 0.67 -1.02 0.34 0 0 Z " fill="#FD7A03" transform="translate(36,31)"/>
<path d="M0 0 C0 2.66666667 0 5.33333333 0 8 C-1.98 6.35 -3.96 4.7 -6 3 C-5.34 2.34 -4.68 1.68 -4 1 C-4 1.66 -4 2.32 -4 3 C-2.68 2.01 -1.36 1.02 0 0 Z " fill="#DF7734" transform="translate(31,28)"/>
<path d="M0 0 C0 2.64 0 5.28 0 8 C-2 5 -2 5 -2 3 C-3.32 3 -4.64 3 -6 3 C-4.60722783 0.21445565 -3.01148006 0 0 0 Z " fill="#CAAE60" transform="translate(45,32)"/>
</svg>
