<?xml version="1.0" encoding="UTF-8"?>
<svg version="1.1" xmlns="http://www.w3.org/2000/svg" width="48" height="48">
<path d="M0 0 C0.85464844 -0.01417969 1.70929687 -0.02835937 2.58984375 -0.04296875 C5.23874285 0.20392706 6.82885385 0.76336319 9.0625 2.1875 C10.32487731 4.71225462 10.16106404 6.49950466 10.125 9.3125 C10.11597656 10.22257813 10.10695312 11.13265625 10.09765625 12.0703125 C10.08605469 12.76898438 10.07445312 13.46765625 10.0625 14.1875 C11.20138672 14.11789062 11.20138672 14.11789062 12.36328125 14.046875 C13.85408203 13.99273438 13.85408203 13.99273438 15.375 13.9375 C16.36113281 13.89109375 17.34726562 13.8446875 18.36328125 13.796875 C21.0625 14.1875 21.0625 14.1875 22.8984375 15.859375 C24.29972763 18.66195526 24.43077497 20.56410144 24.375 23.6875 C24.37113281 24.6259375 24.36726563 25.564375 24.36328125 26.53125 C24.05199308 29.28028838 23.67540515 30.94076951 22.0625 33.1875 C17.90402793 33.99236556 14.29529988 34.1875 10.0625 34.1875 C10.11470703 35.21810547 10.11470703 35.21810547 10.16796875 36.26953125 C10.19503906 37.17058594 10.22210938 38.07164063 10.25 39 C10.30220703 40.33998047 10.30220703 40.33998047 10.35546875 41.70703125 C10.0625 44.1875 10.0625 44.1875 8.73828125 45.94921875 C5.07138038 48.65879352 1.45079388 48.41063359 -2.9375 48.1875 C-3.85144531 47.85621094 -4.76539062 47.52492187 -5.70703125 47.18359375 C-9.40271472 46.04405411 -12.45458596 45.98970917 -16.3125 46.0625 C-18.18035156 46.08957031 -18.18035156 46.08957031 -20.0859375 46.1171875 C-21.02695312 46.14039063 -21.96796875 46.16359375 -22.9375 46.1875 C-22.92589844 45.12789062 -22.91429688 44.06828125 -22.90234375 42.9765625 C-22.89296524 41.58854342 -22.88386511 40.20052245 -22.875 38.8125 C-22.86662109 38.11382812 -22.85824219 37.41515625 -22.84960938 36.6953125 C-22.7539558 32.81454624 -22.7539558 32.81454624 -23.9375 29.1875 C-24.05898305 27.56584248 -24.11293652 25.93865673 -24.125 24.3125 C-24.13917969 23.44882812 -24.15335938 22.58515625 -24.16796875 21.6953125 C-23.92272656 19.02674491 -23.3739726 17.43545361 -21.9375 15.1875 C-19.41274538 13.92512269 -17.62549534 14.08893596 -14.8125 14.125 C-13.90242187 14.13402344 -12.99234375 14.14304687 -12.0546875 14.15234375 C-11.35601562 14.16394531 -10.65734375 14.17554688 -9.9375 14.1875 C-9.96070313 13.50042969 -9.98390625 12.81335937 -10.0078125 12.10546875 C-10.02585937 11.20441406 -10.04390625 10.30335937 -10.0625 9.375 C-10.08570313 8.48167969 -10.10890625 7.58835937 -10.1328125 6.66796875 C-9.9375 4.1875 -9.9375 4.1875 -7.9375 1.1875 C-5.02663331 0.2172111 -3.03526315 0.02282153 0 0 Z M-0.9375 23.1875 C-0.9375 23.8475 -0.9375 24.5075 -0.9375 25.1875 C-0.2775 25.1875 0.3825 25.1875 1.0625 25.1875 C1.0625 24.5275 1.0625 23.8675 1.0625 23.1875 C0.4025 23.1875 -0.2575 23.1875 -0.9375 23.1875 Z " fill="#090808" transform="translate(23.9375,-0.1875)"/>
<path d="M0 0 C3.49975881 1.41336413 6.80866516 2.83473857 9 6 C9.1875 8.6875 9.1875 8.6875 9 11 C9.99 11.33 10.98 11.66 12 12 C11.30767294 16.46166326 9.04714409 17.83330118 5.59375 20.4375 C3.72084817 22.27367826 3.29184416 23.41509461 3 26 C3.33 26.66 3.66 27.32 4 28 C-2.435 28.495 -2.435 28.495 -9 29 C-8.98839844 27.94039062 -8.97679687 26.88078125 -8.96484375 25.7890625 C-8.95546524 24.40104342 -8.94636511 23.01302245 -8.9375 21.625 C-8.92912109 20.92632812 -8.92074219 20.22765625 -8.91210938 19.5078125 C-8.8164558 15.62704624 -8.8164558 15.62704624 -10 12 C-10.203125 9.94140625 -10.203125 9.94140625 -10.25 7.5625 C-10.28867188 6.38880859 -10.28867188 6.38880859 -10.328125 5.19140625 C-10 3 -10 3 -8.69140625 1.23828125 C-5.85170243 -0.84067051 -3.40377374 -0.34614648 0 0 Z " fill="#454544" transform="translate(12,16)"/>
<path d="M0 0 C2.3046875 0.56640625 2.3046875 0.56640625 4.08984375 2.34765625 C6.06302605 5.95141041 5.62821618 8.48994488 5.3046875 12.56640625 C3.3046875 15.56640625 3.3046875 15.56640625 0.9140625 16.0703125 C-7.76167798 16.24809407 -7.76167798 16.24809407 -11.4453125 12.81640625 C-13.6953125 9.56640625 -13.6953125 9.56640625 -13.45703125 7.53515625 C-10.87042436 0.8497723 -6.46683472 0.00982802 0 0 Z " fill="#262626" transform="translate(40.6953125,15.43359375)"/>
<path d="M0 0 C5.75 1.875 5.75 1.875 8 3 C7.30767294 7.46166326 5.04714409 8.83330118 1.59375 11.4375 C-0.27915183 13.27367826 -0.70815584 14.41509461 -1 17 C-0.67 17.66 -0.34 18.32 0 19 C-6.435 19.495 -6.435 19.495 -13 20 C-13.07654536 15.48382401 -13.10228696 11.40914783 -12 7 C-11.42765625 7.24621094 -10.8553125 7.49242187 -10.265625 7.74609375 C-7.85289314 8.28236888 -7.85289314 8.28236888 -5.859375 6.34765625 C-4.81523437 5.21650391 -4.81523437 5.21650391 -3.75 4.0625 C-2.69039062 2.93521484 -2.69039062 2.93521484 -1.609375 1.78515625 C-0.81273437 0.90150391 -0.81273437 0.90150391 0 0 Z " fill="#EEAB26" transform="translate(16,25)"/>
<path d="M0 0 C2.25390625 1.01953125 2.25390625 1.01953125 4 2 C4.77603583 11.84703247 4.77603583 11.84703247 1.8125 16.25 C-1 18 -1 18 -3.5625 18.0625 C-6.70045532 16.69467332 -8.0441828 15.86387518 -10 13 C-10.80491785 9.65986469 -11.31495203 6.43011391 -11 3 C-8.26032704 -0.92115692 -4.40794798 -0.65146256 0 0 Z " fill="#4E4E4E" transform="translate(27,2)"/>
<path d="M0 0 C2.90119578 1.30053604 4.99902497 2.50977558 7 5 C7.65234375 7.59375 7.65234375 7.59375 7.9375 10.5 C8.04964844 11.4590625 8.16179688 12.418125 8.27734375 13.40625 C8 16 8 16 6.2109375 17.81640625 C2.92541734 19.57526245 0.68221604 19.43687309 -3 19 C-5.53171454 17.86220611 -7.6624883 16.52653825 -10 15 C-8.60846256 10.57238086 -6.47928514 8.0443745 -3 5 C-2.34 5 -1.68 5 -1 5 C-0.67 3.35 -0.34 1.7 0 0 Z " fill="#242323" transform="translate(24,27)"/>
<path d="M0 0 C0.9590625 -0.01933594 1.918125 -0.03867188 2.90625 -0.05859375 C5.5 0.4375 5.5 0.4375 7.32421875 2.12109375 C8.74443473 4.91906079 8.86834299 6.81029275 8.8125 9.9375 C8.80863281 10.8759375 8.80476563 11.814375 8.80078125 12.78125 C8.48949308 15.53028838 8.11290515 17.19076951 6.5 19.4375 C2.34152793 20.24236556 -1.26720012 20.4375 -5.5 20.4375 C-5.46519531 21.12457031 -5.43039063 21.81164062 -5.39453125 22.51953125 C-5.36746094 23.42058594 -5.34039062 24.32164063 -5.3125 25.25 C-5.27769531 26.14332031 -5.24289063 27.03664063 -5.20703125 27.95703125 C-5.5 30.4375 -5.5 30.4375 -6.82421875 32.19921875 C-10.49345825 34.91052159 -14.1193857 34.5201531 -18.5 34.4375 C-18.5 33.7775 -18.5 33.1175 -18.5 32.4375 C-17.54287109 32.23833984 -17.54287109 32.23833984 -16.56640625 32.03515625 C-15.74011719 31.85855469 -14.91382813 31.68195312 -14.0625 31.5 C-12.82693359 31.23896484 -12.82693359 31.23896484 -11.56640625 30.97265625 C-9.52338796 30.62997006 -9.52338796 30.62997006 -8.5 29.4375 C-8.26743351 23.59300309 -8.62882751 18.76815685 -12.5625 14.25 C-13.51880698 13.28919275 -14.49039101 12.34213435 -15.5 11.4375 C-14.51 10.7775 -13.52 10.1175 -12.5 9.4375 C-12.19449219 9.9428125 -11.88898437 10.448125 -11.57421875 10.96875 C-10.01353972 13.18447459 -8.67197547 14.79928031 -6.5 16.4375 C-2.76133229 17.04779006 0.74627417 16.85829133 4.5 16.4375 C6.0635348 13.31043041 5.89958487 9.85767557 5.5 6.4375 C4.84 5.4475 4.18 4.4575 3.5 3.4375 C0.60391601 3.07251966 0.60391601 3.07251966 -2.625 3.25 C-3.72070312 3.27707031 -4.81640625 3.30414062 -5.9453125 3.33203125 C-6.78835937 3.36683594 -7.63140625 3.40164062 -8.5 3.4375 C-5.96140723 0.20422475 -4.02317789 0.0054075 0 0 Z " fill="#030202" transform="translate(39.5,13.5625)"/>
<path d="M0 0 C0.85464844 -0.01417969 1.70929687 -0.02835937 2.58984375 -0.04296875 C5.23874285 0.20392706 6.82885385 0.76336319 9.0625 2.1875 C10.26522819 4.59295638 10.16321472 6.13746953 10.125 8.8125 C10.11597656 9.62976562 10.10695313 10.44703125 10.09765625 11.2890625 C10.08605469 11.91554688 10.07445313 12.54203125 10.0625 13.1875 C9.0725 13.6825 9.0725 13.6825 8.0625 14.1875 C8.03671875 13.56101562 8.0109375 12.93453125 7.984375 12.2890625 C7.92765625 11.47179688 7.8709375 10.65453125 7.8125 9.8125 C7.76609375 9.00039062 7.7196875 8.18828125 7.671875 7.3515625 C7.26856577 5.05248932 7.26856577 5.05248932 5.2734375 3.9140625 C1.70004603 2.73976778 -1.17879447 2.94500287 -4.9375 3.1875 C-7.33513185 5.58513185 -7.28030586 6.52023498 -7.5625 9.8125 C-7.63726563 10.62976562 -7.71203125 11.44703125 -7.7890625 12.2890625 C-7.83804687 12.91554688 -7.88703125 13.54203125 -7.9375 14.1875 C-10.54454898 11.58045102 -10.17655333 9.71411759 -10.203125 6.16015625 C-9.9375 4.1875 -9.9375 4.1875 -7.9375 1.1875 C-5.02663331 0.2172111 -3.03526315 0.02282153 0 0 Z " fill="#030303" transform="translate(23.9375,-0.1875)"/>
<path d="M0 0 C0 0.66 0 1.32 0 2 C-2.64 2 -5.28 2 -8 2 C-7.79375 3.258125 -7.5875 4.51625 -7.375 5.8125 C-6.78664331 9.4014758 -6.83382585 9.75073878 -9 13 C-11.46800047 11.84826645 -13.04783565 10.95216435 -15 9 C-14.89787502 6.03837549 -13.75343652 4.66097522 -12 2.25 C-7.94916801 -0.78812399 -4.89169007 -0.47957746 0 0 Z " fill="#676666" transform="translate(42,16)"/>
<path d="M0 0 C0.91007812 0.00902344 1.82015625 0.01804687 2.7578125 0.02734375 C3.45648438 0.03894531 4.15515625 0.05054688 4.875 0.0625 C5.205 1.3825 5.535 2.7025 5.875 4.0625 C3.62331203 6.14739627 2.49763575 7.0625 -0.625 7.0625 C-3.87253145 5.76348742 -5.16164044 3.8984638 -7.125 1.0625 C-4.60024538 -0.19987731 -2.81299534 -0.03606404 0 0 Z " fill="#2F2F2F" transform="translate(24.125,12.9375)"/>
<path d="M0 0 C2.00841268 0.01421885 4.01537247 0.13420475 6.01953125 0.265625 C5.7133472 3.93983366 5.26181341 5.04698013 2.45703125 7.578125 C1.65265625 8.135 0.84828125 8.691875 0.01953125 9.265625 C-0.64046875 8.935625 -1.30046875 8.605625 -1.98046875 8.265625 C-1.98046875 7.275625 -1.98046875 6.285625 -1.98046875 5.265625 C-2.97046875 4.935625 -3.96046875 4.605625 -4.98046875 4.265625 C-3.72152968 1.74774686 -2.88459378 0.38688832 0 0 Z " fill="#C46E3C" transform="translate(17.98046875,26.734375)"/>
<path d="M0 0 C0.99 0.33 1.98 0.66 3 1 C1.35 2.65 -0.3 4.3 -2 6 C-1.34 6.33 -0.68 6.66 0 7 C0 7.99 0 8.98 0 10 C0.66 10.33 1.32 10.66 2 11 C0.69593116 13.01920337 -0.63823419 15.01924973 -2 17 C-2.33 17 -2.66 17 -3 17 C-3 13.7 -3 10.4 -3 7 C-4.32 7.99 -5.64 8.98 -7 10 C-7.99 9.67 -8.98 9.34 -10 9 C-9.44570312 8.51789062 -8.89140625 8.03578125 -8.3203125 7.5390625 C-7.59585937 6.90742188 -6.87140625 6.27578125 -6.125 5.625 C-5.40570312 4.99851562 -4.68640625 4.37203125 -3.9453125 3.7265625 C-2.5923402 2.52573166 -1.2791655 1.2791655 0 0 Z " fill="#E6923C" transform="translate(16,25)"/>
<path d="M0 0 C2.46800047 1.15173355 4.04783565 2.04783565 6 4 C5.625 6.625 5.625 6.625 5 9 C4.401875 8.814375 3.80375 8.62875 3.1875 8.4375 C0.83591238 7.77906313 0.83591238 7.77906313 -2 9 C-2.25 3.375 -2.25 3.375 0 0 Z " fill="#30302F" transform="translate(15,18)"/>
<path d="M0 0 C0.33 0 0.66 0 1 0 C1 1.98 1 3.96 1 6 C2.04800781 5.83242188 3.09601562 5.66484375 4.17578125 5.4921875 C5.55459429 5.28583453 6.93350592 5.08013962 8.3125 4.875 C9.34793945 4.70677734 9.34793945 4.70677734 10.40429688 4.53515625 C15.66015625 3.7734375 15.66015625 3.7734375 19 6 C19 6.66 19 7.32 19 8 C18.16210938 7.83628906 17.32421875 7.67257813 16.4609375 7.50390625 C12.79482693 6.97012717 9.32760615 6.90256975 5.625 6.9375 C4.37976563 6.94652344 3.13453125 6.95554687 1.8515625 6.96484375 C0.91054688 6.97644531 -0.03046875 6.98804688 -1 7 C-0.67 4.69 -0.34 2.38 0 0 Z " fill="#161613" transform="translate(2,39)"/>
<path d="M0 0 C2.62187494 1.04874998 3.79371361 1.64931313 5.25 4.125 C5.4975 4.74375 5.745 5.3625 6 6 C2.52674819 7.1577506 -0.36067448 7.06866652 -4 7 C-3.67 6.34 -3.34 5.68 -3 5 C-2.34 5 -1.68 5 -1 5 C-0.67 3.35 -0.34 1.7 0 0 Z " fill="#424241" transform="translate(24,27)"/>
<path d="M0 0 C0.33 0 0.66 0 1 0 C1.06058594 0.68707031 1.12117187 1.37414062 1.18359375 2.08203125 C1.26738281 2.98308594 1.35117187 3.88414063 1.4375 4.8125 C1.51871094 5.70582031 1.59992188 6.59914063 1.68359375 7.51953125 C1.93489767 10.12743559 1.93489767 10.12743559 3 13 C2.83988879 15.70123106 2.39559392 18.31875231 2 21 C1.67 21 1.34 21 1 21 C-0.58931056 14.33057175 -1.59704584 7.87296952 -1 1 C-0.67 0.67 -0.34 0.34 0 0 Z " fill="#020102" transform="translate(1,18)"/>
<path d="M0 0 C0 1.98 0 3.96 0 6 C-0.99 6 -1.98 6 -3 6 C-3.66 5.34 -4.32 4.68 -5 4 C-4.67 3.01 -4.34 2.02 -4 1 C-2 0 -2 0 0 0 Z " fill="#454545" transform="translate(32,21)"/>
<path d="M0 0 C0.99 0 1.98 0 3 0 C2.835 0.5775 2.67 1.155 2.5 1.75 C1.85537969 4.26664369 1.85537969 4.26664369 2 8 C1.34 8 0.68 8 0 8 C0 7.01 0 6.02 0 5 C-0.99 4.67 -1.98 4.34 -3 4 C-1.6875 2 -1.6875 2 0 0 Z " fill="#ED5902" transform="translate(16,27)"/>
<path d="M0 0 C0.66 0 1.32 0 2 0 C2.1953125 6.0546875 2.1953125 6.0546875 2 8 C1.34 8.66 0.68 9.32 0 10 C-0.19412181 8.52168779 -0.38012131 7.04230684 -0.5625 5.5625 C-0.66691406 4.73878906 -0.77132813 3.91507813 -0.87890625 3.06640625 C-0.91886719 2.38449219 -0.95882813 1.70257813 -1 1 C-0.67 0.67 -0.34 0.34 0 0 Z " fill="#FE8701" transform="translate(11,32)"/>
<path d="M0 0 C1.67542976 0.28604898 3.34385343 0.61781233 5 1 C4.67 1.99 4.34 2.98 4 4 C3.01 3.67 2.02 3.34 1 3 C0.34 4.32 -0.32 5.64 -1 7 C-1.04254356 5.00045254 -1.04080783 2.99958364 -1 1 C-0.67 0.67 -0.34 0.34 0 0 Z " fill="#303029" transform="translate(4,30)"/>
</svg>
