<?xml version="1.0" encoding="UTF-8"?>
<svg version="1.1" xmlns="http://www.w3.org/2000/svg" width="48" height="48">
<path d="M0 0 C0.85464844 -0.01417969 1.70929687 -0.02835937 2.58984375 -0.04296875 C5.23874285 0.20392706 6.82885385 0.76336319 9.0625 2.1875 C10.32487731 4.71225462 10.16106404 6.49950466 10.125 9.3125 C10.11597656 10.22257813 10.10695312 11.13265625 10.09765625 12.0703125 C10.08605469 12.76898438 10.07445312 13.46765625 10.0625 14.1875 C11.20138672 14.11789062 11.20138672 14.11789062 12.36328125 14.046875 C13.85408203 13.99273438 13.85408203 13.99273438 15.375 13.9375 C16.36113281 13.89109375 17.34726562 13.8446875 18.36328125 13.796875 C21.0625 14.1875 21.0625 14.1875 22.8984375 15.859375 C24.29972763 18.66195526 24.43077497 20.56410144 24.375 23.6875 C24.37113281 24.6259375 24.36726563 25.564375 24.36328125 26.53125 C24.05290029 29.27227666 23.56818036 30.89121156 22.0625 33.1875 C21.0725 33.8475 20.0825 34.5075 19.0625 35.1875 C19.8875 35.785625 20.7125 36.38375 21.5625 37 C22.3875 37.721875 23.2125 38.44375 24.0625 39.1875 C24.0625 40.1775 24.0625 41.1675 24.0625 42.1875 C19.4425 42.1875 14.8225 42.1875 10.0625 42.1875 C9.4025 43.5075 8.7425 44.8275 8.0625 46.1875 C4.62370904 48.73475256 1.21330897 48.47878484 -2.9375 48.1875 C-6.07093209 47.21265446 -7.61372995 46.51127005 -9.9375 44.1875 C-10.1346417 40.04752433 -10.24515478 37.11046433 -8.9375 33.1875 C-9.93330078 33.38279297 -9.93330078 33.38279297 -10.94921875 33.58203125 C-18.06500347 34.69354799 -18.06500347 34.69354799 -22.0625 32.375 C-24.64058373 27.99225766 -24.7065804 24.16628363 -23.9375 19.1875 C-22.42933896 15.43341948 -22.42933896 15.43341948 -19.9375 14.1875 C-18.23047265 14.11753986 -16.52081997 14.10309846 -14.8125 14.125 C-13.90242187 14.13402344 -12.99234375 14.14304687 -12.0546875 14.15234375 C-11.35601562 14.16394531 -10.65734375 14.17554688 -9.9375 14.1875 C-9.96070313 13.50042969 -9.98390625 12.81335937 -10.0078125 12.10546875 C-10.02585937 11.20441406 -10.04390625 10.30335937 -10.0625 9.375 C-10.08570313 8.48167969 -10.10890625 7.58835937 -10.1328125 6.66796875 C-9.9375 4.1875 -9.9375 4.1875 -7.9375 1.1875 C-5.02663331 0.2172111 -3.03526315 0.02282153 0 0 Z M-0.9375 23.1875 C-0.9375 23.8475 -0.9375 24.5075 -0.9375 25.1875 C-0.2775 25.1875 0.3825 25.1875 1.0625 25.1875 C1.0625 24.5275 1.0625 23.8675 1.0625 23.1875 C0.4025 23.1875 -0.2575 23.1875 -0.9375 23.1875 Z M10.0625 33.1875 C9.7325 33.8475 9.4025 34.5075 9.0625 35.1875 C9.7225 35.1875 10.3825 35.1875 11.0625 35.1875 C10.7325 34.5275 10.4025 33.8675 10.0625 33.1875 Z " fill="#090808" transform="translate(23.9375,-0.1875)"/>
<path d="M0 0 C0.99 0.33 1.98 0.66 3 1 C3 4 3 4 1.609375 5.4296875 C0.99578125 5.90664063 0.3821875 6.38359375 -0.25 6.875 C-3.27405075 9.32859087 -5.68118944 11.84641764 -8 15 C-6.35 15.33 -4.7 15.66 -3 16 C-3 15.01 -3 14.02 -3 13 C0.58273331 14.65356922 3.80973467 16.67980703 7 19 C7 19.66 7 20.32 7 21 C-1.91 21 -10.82 21 -20 21 C-18.35 19.02 -16.7 17.04 -15 15 C-16.65 14.67 -18.3 14.34 -20 14 C-20.33 15.98 -20.66 17.96 -21 20 C-21.33 20 -21.66 20 -22 20 C-22.61538462 12.73846154 -22.61538462 12.73846154 -19.5 9 C-18.675 8.34 -17.85 7.68 -17 7 C-16.34 7.33 -15.68 7.66 -15 8 C-15.99 9.485 -15.99 9.485 -17 11 C-14.24805861 11.46172622 -14.24805861 11.46172622 -11 11 C-8.76809329 9.20515074 -7.01779083 7.59338551 -5.125 5.5 C-4.62742187 4.97535156 -4.12984375 4.45070313 -3.6171875 3.91015625 C-2.39736085 2.61995498 -1.19669751 1.31168268 0 0 Z " fill="#D0A766" transform="translate(39,20)"/>
<path d="M0 0 C3.45334405 1.39461971 6.91152171 2.80585673 9 6 C9 9.32535714 8.21646066 10.73303185 6.125 13.3125 C1.62473328 15.74264403 -2.97631134 15.89795401 -8 15 C-10.06520632 11.90219052 -10.29477024 11.0459519 -10.3125 7.5 C-10.32925781 6.7265625 -10.34601562 5.953125 -10.36328125 5.15625 C-9.38292669 -0.66262867 -5.06314782 -0.51489639 0 0 Z " fill="#3F3F3F" transform="translate(12,16)"/>
<path d="M0 0 C2.25390625 1.01953125 2.25390625 1.01953125 4 2 C4.77603583 11.84703247 4.77603583 11.84703247 1.8125 16.25 C-1 18 -1 18 -3.5625 18.0625 C-6.70045532 16.69467332 -8.0441828 15.86387518 -10 13 C-10.80491785 9.65986469 -11.31495203 6.43011391 -11 3 C-8.26032704 -0.92115692 -4.40794798 -0.65146256 0 0 Z " fill="#4E4E4E" transform="translate(27,2)"/>
<path d="M0 0 C2.3046875 0.56640625 2.3046875 0.56640625 4.08984375 2.34765625 C6.06302605 5.95141041 5.62821618 8.48994488 5.3046875 12.56640625 C4.3146875 14.05140625 4.3146875 14.05140625 3.3046875 15.56640625 C0.921875 15.859375 0.921875 15.859375 -1.8203125 15.75390625 C-2.73039062 15.72683594 -3.64046875 15.69976562 -4.578125 15.671875 C-5.27679688 15.63707031 -5.97546875 15.60226563 -6.6953125 15.56640625 C-5.74414116 14.39389315 -4.78414241 13.2285361 -3.8203125 12.06640625 C-3.28664063 11.41671875 -2.75296875 10.76703125 -2.203125 10.09765625 C-1.70554687 9.59234375 -1.20796875 9.08703125 -0.6953125 8.56640625 C-0.0353125 8.56640625 0.6246875 8.56640625 1.3046875 8.56640625 C0.9746875 7.57640625 0.6446875 6.58640625 0.3046875 5.56640625 C-2.68751518 6.93010924 -4.98557779 8.51548708 -7.4453125 10.69140625 C-8.05890625 11.23023438 -8.6725 11.7690625 -9.3046875 12.32421875 C-9.76359375 12.73414063 -10.2225 13.1440625 -10.6953125 13.56640625 C-13.6953125 10.20640625 -13.6953125 10.20640625 -13.6953125 7.62890625 C-10.52547071 1.09110755 -6.79937437 0.0103334 0 0 Z " fill="#393939" transform="translate(40.6953125,15.43359375)"/>
<path d="M0 0 C0.9590625 -0.01933594 1.918125 -0.03867188 2.90625 -0.05859375 C5.5 0.4375 5.5 0.4375 7.32421875 2.12109375 C8.74443473 4.91906079 8.86834299 6.81029275 8.8125 9.9375 C8.80863281 10.8759375 8.80476563 11.814375 8.80078125 12.78125 C8.49040029 15.52227666 8.00568036 17.14121156 6.5 19.4375 C5.51 20.0975 4.52 20.7575 3.5 21.4375 C5.975 23.4175 5.975 23.4175 8.5 25.4375 C8.17 26.4275 7.84 27.4175 7.5 28.4375 C6.984375 27.880625 6.46875 27.32375 5.9375 26.75 C2.98347209 23.9474607 -0.15271194 21.75485327 -3.5 19.4375 C-3.5 20.4275 -3.5 21.4175 -3.5 22.4375 C-5.48 22.4375 -7.46 22.4375 -9.5 22.4375 C-8.125 20 -8.125 20 -5.5 17.4375 C-2.85225322 16.91552766 -0.34053582 16.75077991 2.35546875 16.67578125 C3.06316406 16.59714844 3.77085938 16.51851562 4.5 16.4375 C6.0635348 13.31043041 5.89958487 9.85767557 5.5 6.4375 C4.84 5.4475 4.18 4.4575 3.5 3.4375 C0.60391601 3.07251966 0.60391601 3.07251966 -2.625 3.25 C-3.72070312 3.27707031 -4.81640625 3.30414062 -5.9453125 3.33203125 C-7.20988281 3.38423828 -7.20988281 3.38423828 -8.5 3.4375 C-5.96140723 0.20422475 -4.02317789 0.0054075 0 0 Z M-5.5 19.4375 C-5.83 20.0975 -6.16 20.7575 -6.5 21.4375 C-5.84 21.4375 -5.18 21.4375 -4.5 21.4375 C-4.83 20.7775 -5.16 20.1175 -5.5 19.4375 Z " fill="#010101" transform="translate(39.5,13.5625)"/>
<path d="M0 0 C-1.65 1.98 -3.3 3.96 -5 6 C3.91 6 12.82 6 22 6 C22 6.66 22 7.32 22 8 C20.96359375 8.03738281 19.9271875 8.07476562 18.859375 8.11328125 C17.48954816 8.17895788 16.11975809 8.24540464 14.75 8.3125 C14.06808594 8.33505859 13.38617188 8.35761719 12.68359375 8.38085938 C8.44510677 8.60718635 6.1989076 9.25601606 3 12 C-1.11841419 12.52416181 -3.28648937 12.39470801 -6.9375 10.375 C-9 8 -9 8 -9.5 4.9375 C-9 2 -9 2 -7.875 0.0625 C-5.07329973 -1.52513015 -3.03014356 -0.74070176 0 0 Z " fill="#2B2B2A" transform="translate(25,34)"/>
<path d="M0 0 C0.85464844 -0.01417969 1.70929687 -0.02835937 2.58984375 -0.04296875 C5.23874285 0.20392706 6.82885385 0.76336319 9.0625 2.1875 C10.26522819 4.59295638 10.16321472 6.13746953 10.125 8.8125 C10.11597656 9.62976562 10.10695313 10.44703125 10.09765625 11.2890625 C10.08605469 11.91554688 10.07445313 12.54203125 10.0625 13.1875 C9.0725 13.6825 9.0725 13.6825 8.0625 14.1875 C8.03671875 13.56101562 8.0109375 12.93453125 7.984375 12.2890625 C7.92765625 11.47179688 7.8709375 10.65453125 7.8125 9.8125 C7.76609375 9.00039062 7.7196875 8.18828125 7.671875 7.3515625 C7.26856577 5.05248932 7.26856577 5.05248932 5.2734375 3.9140625 C1.70004603 2.73976778 -1.17879447 2.94500287 -4.9375 3.1875 C-7.33513185 5.58513185 -7.28030586 6.52023498 -7.5625 9.8125 C-7.63726563 10.62976562 -7.71203125 11.44703125 -7.7890625 12.2890625 C-7.83804687 12.91554688 -7.88703125 13.54203125 -7.9375 14.1875 C-10.54454898 11.58045102 -10.17655333 9.71411759 -10.203125 6.16015625 C-9.9375 4.1875 -9.9375 4.1875 -7.9375 1.1875 C-5.02663331 0.2172111 -3.03526315 0.02282153 0 0 Z " fill="#030303" transform="translate(23.9375,-0.1875)"/>
<path d="M0 0 C0.33 0.66 0.66 1.32 1 2 C0.67 2.66 0.34 3.32 0 4 C0.90363281 3.90460937 1.80726562 3.80921875 2.73828125 3.7109375 C4.50751953 3.54464844 4.50751953 3.54464844 6.3125 3.375 C7.48425781 3.25898437 8.65601563 3.14296875 9.86328125 3.0234375 C13 3 13 3 16 5 C16 5.66 16 6.32 16 7 C8.74 7 1.48 7 -6 7 C-4.02 4.69 -2.04 2.38 0 0 Z " fill="#F9A119" transform="translate(28,33)"/>
<path d="M0 0 C0.25 7.625 0.25 7.625 -2 11 C-4.3828125 11.29296875 -4.3828125 11.29296875 -7.125 11.1875 C-8.03507812 11.16042969 -8.94515625 11.13335937 -9.8828125 11.10546875 C-10.58148438 11.07066406 -11.28015625 11.03585938 -12 11 C-2.73033708 0 -2.73033708 0 0 0 Z " fill="#444441" transform="translate(46,20)"/>
<path d="M0 0 C0.91007812 0.00902344 1.82015625 0.01804687 2.7578125 0.02734375 C3.45648438 0.03894531 4.15515625 0.05054688 4.875 0.0625 C5.205 1.3825 5.535 2.7025 5.875 4.0625 C3.62331203 6.14739627 2.49763575 7.0625 -0.625 7.0625 C-3.87253145 5.76348742 -5.16164044 3.8984638 -7.125 1.0625 C-4.60024538 -0.19987731 -2.81299534 -0.03606404 0 0 Z " fill="#2F2F2F" transform="translate(24.125,12.9375)"/>
<path d="M0 0 C0.33 0 0.66 0 1 0 C1.0825 1.258125 1.165 2.51625 1.25 3.8125 C1.61959826 6.63443265 1.79697771 7.75012641 3.625 10 C6.94486236 11.39783678 9.43330664 11.38214572 13 11 C15.28484306 9.60042803 15.28484306 9.60042803 17 8 C17.66 8 18.32 8 19 8 C18.06896676 10.32758311 17.34617872 11.74357132 15.3125 13.25 C11.13733372 14.60410798 7.35210536 14.420655 3.1875 13.125 C1 12 1 12 -1 10 C-1.23046875 8.125 -1.23046875 8.125 -1.1875 6 C-1.18105469 5.29875 -1.17460937 4.5975 -1.16796875 3.875 C-1 2 -1 2 0 0 Z " fill="#010101" transform="translate(15,34)"/>
<path d="M0 0 C-0.99 0.33 -1.98 0.66 -3 1 C-2.9175 2.258125 -2.835 3.51625 -2.75 4.8125 C-2.734375 7.01953125 -2.734375 7.01953125 -3 9 C-5 11 -5 11 -7 12 C-10.01932367 8.61835749 -10.01932367 8.61835749 -9.9375 6 C-7.71268505 1.2537281 -5.24514569 -0.58279397 0 0 Z " fill="#424342" transform="translate(37,17)"/>
<path d="M0 0 C0.33 0 0.66 0 1 0 C1.06058594 0.69867187 1.12117187 1.39734375 1.18359375 2.1171875 C1.26738281 3.02726562 1.35117187 3.93734375 1.4375 4.875 C1.55931641 6.23238281 1.55931641 6.23238281 1.68359375 7.6171875 C1.86989285 10.01110861 1.86989285 10.01110861 3 12 C5.58605332 12.4683265 5.58605332 12.4683265 8.5625 12.625 C9.57441406 12.69976562 10.58632812 12.77453125 11.62890625 12.8515625 C12.80259766 12.92503906 12.80259766 12.92503906 14 13 C13.67 13.66 13.34 14.32 13 15 C10.00355338 15.93484182 7.12751491 16.19115541 4 16 C0.9375 14.1875 0.9375 14.1875 -1 11 C-1.44441703 7.61720212 -1.43863984 4.38379303 -1 1 C-0.67 0.67 -0.34 0.34 0 0 Z " fill="#030202" transform="translate(1,18)"/>
<path d="M0 0 C1.58473048 0.08015255 3.16906283 0.1767325 4.75 0.3125 C4.42 1.6325 4.09 2.9525 3.75 4.3125 C6.225 6.2925 6.225 6.2925 8.75 8.3125 C8.42 9.3025 8.09 10.2925 7.75 11.3125 C7.234375 10.755625 6.71875 10.19875 6.1875 9.625 C3.23347209 6.8224607 0.09728806 4.62985327 -3.25 2.3125 C-3.25 3.3025 -3.25 4.2925 -3.25 5.3125 C-5.23 5.3125 -7.21 5.3125 -9.25 5.3125 C-6.77450837 0.81160612 -4.94506959 -0.03502174 0 0 Z M-5.25 2.3125 C-5.58 2.9725 -5.91 3.6325 -6.25 4.3125 C-5.59 4.3125 -4.93 4.3125 -4.25 4.3125 C-4.58 3.6525 -4.91 2.9925 -5.25 2.3125 Z " fill="#0F0F0E" transform="translate(39.25,30.6875)"/>
<path d="M0 0 C0.33 0.99 0.66 1.98 1 3 C-0.9375 5.6875 -0.9375 5.6875 -3 8 C-1.35 8.33 0.3 8.66 2 9 C2 8.01 2 7.02 2 6 C3.32 6.66 4.64 7.32 6 8 C2.79619983 10.13586678 1.98060033 10.23132175 -1.6875 10.125 C-2.89986328 10.09792969 -2.89986328 10.09792969 -4.13671875 10.0703125 C-5.05904297 10.03550781 -5.05904297 10.03550781 -6 10 C-4.79157144 5.56909529 -3.48331435 3.01887244 0 0 Z " fill="#DD8A35" transform="translate(34,27)"/>
<path d="M0 0 C0.66 0.33 1.32 0.66 2 1 C1.01 2.485 1.01 2.485 0 4 C1.65 4.33 3.3 4.66 5 5 C4.67 5.66 4.34 6.32 4 7 C1.69 7 -0.62 7 -3 7 C-3.33 8.98 -3.66 10.96 -4 13 C-4.33 13 -4.66 13 -5 13 C-5.61538462 5.73846154 -5.61538462 5.73846154 -2.5 2 C-1.675 1.34 -0.85 0.68 0 0 Z " fill="#696969" transform="translate(22,27)"/>
<path d="M0 0 C0.99 0.33 1.98 0.66 3 1 C3 1.99 3 2.98 3 4 C1.46875 5.38671875 1.46875 5.38671875 -0.5 6.6875 C-1.47453125 7.34298828 -1.47453125 7.34298828 -2.46875 8.01171875 C-2.9740625 8.33785156 -3.479375 8.66398437 -4 9 C-3.23596585 5.52846619 -1.91813089 3.00229182 0 0 Z " fill="#E2A546" transform="translate(39,20)"/>
<path d="M0 0 C0.78375 0.04125 1.5675 0.0825 2.375 0.125 C1.385 0.455 0.395 0.785 -0.625 1.125 C-0.625 3.435 -0.625 5.745 -0.625 8.125 C-1.285 8.125 -1.945 8.125 -2.625 8.125 C-2.625 6.805 -2.625 5.485 -2.625 4.125 C-4.605 5.115 -4.605 5.115 -6.625 6.125 C-3.85227273 0.18344156 -3.85227273 0.18344156 0 0 Z " fill="#7B7B7B" transform="translate(34.625,16.875)"/>
<path d="M0 0 C0.33 0 0.66 0 1 0 C1.04254356 1.99954746 1.04080783 4.00041636 1 6 C0 7 0 7 -3.0625 7.0625 C-4.5165625 7.0315625 -4.5165625 7.0315625 -6 7 C-5.02433888 5.83040013 -4.044375 4.66438823 -3.0625 3.5 C-2.51722656 2.8503125 -1.97195312 2.200625 -1.41015625 1.53125 C-0.71212891 0.77328125 -0.71212891 0.77328125 0 0 Z " fill="#171717" transform="translate(43,23)"/>
<path d="M0 0 C1.33332095 2.6666419 0.67102033 4.16680303 0 7 C-1.98 7 -3.96 7 -6 7 C-4.02 4.69 -2.04 2.38 0 0 Z " fill="#F26206" transform="translate(28,33)"/>
<path d="M0 0 C0.99 0.66 1.98 1.32 3 2 C2.34 3.65 1.68 5.3 1 7 C-0.65 5.68 -2.3 4.36 -4 3 C-2.68 2.67 -1.36 2.34 0 2 C0 1.34 0 0.68 0 0 Z " fill="#212120" transform="translate(42,16)"/>
<path d="M0 0 C1.32 0.66 2.64 1.32 4 2 C4 2.99 4 3.98 4 5 C1.03 4.505 1.03 4.505 -2 4 C-1.34 2.68 -0.68 1.36 0 0 Z " fill="#353534" transform="translate(24,27)"/>
<path d="M0 0 C1.32 0.66 2.64 1.32 4 2 C0.79619983 4.13586678 -0.01939967 4.23132175 -3.6875 4.125 C-4.89986328 4.09792969 -4.89986328 4.09792969 -6.13671875 4.0703125 C-7.05904297 4.03550781 -7.05904297 4.03550781 -8 4 C-8 3.34 -8 2.68 -8 2 C-5.36 2.33 -2.72 2.66 0 3 C0 2.01 0 1.02 0 0 Z " fill="#AE9E6A" transform="translate(36,33)"/>
</svg>
