<?xml version="1.0" encoding="UTF-8"?>
<svg version="1.1" xmlns="http://www.w3.org/2000/svg" width="48" height="48">
<path d="M0 0 C0.85464844 -0.01417969 1.70929687 -0.02835937 2.58984375 -0.04296875 C5.23874285 0.20392706 6.82885385 0.76336319 9.0625 2.1875 C10.32487731 4.71225462 10.16106404 6.49950466 10.125 9.3125 C10.11597656 10.22257813 10.10695312 11.13265625 10.09765625 12.0703125 C10.08605469 12.76898438 10.07445312 13.46765625 10.0625 14.1875 C10.743125 13.98125 11.42375 13.775 12.125 13.5625 C15.92472147 13.07742917 18.499574 13.84299962 22.0625 15.1875 C24.28948735 18.52798103 24.3336921 19.72035581 24.3125 23.625 C24.32023437 25.04619141 24.32023437 25.04619141 24.328125 26.49609375 C24.05998089 29.21302453 23.44781142 30.86215583 22.0625 33.1875 C20.7425 33.1875 19.4225 33.1875 18.0625 33.1875 C17.815 33.93 17.5675 34.6725 17.3125 35.4375 C15.95784961 38.41773087 14.5523459 40.08669252 12.0625 42.1875 C11.4025 42.1875 10.7425 42.1875 10.0625 42.1875 C9.815 42.80625 9.5675 43.425 9.3125 44.0625 C7.77427504 46.67748244 6.93899576 47.25458246 4.0625 48.1875 C-1.45379596 48.70790528 -5.02876656 47.68492578 -9.9375 45.1875 C-10.61167969 44.8471875 -11.28585937 44.506875 -11.98046875 44.15625 C-18.28088073 40.65733453 -21.66882917 35.9935125 -23.9375 29.1875 C-24.05542999 27.54470783 -24.11261674 25.89697306 -24.125 24.25 C-24.13917969 23.39535156 -24.15335938 22.54070313 -24.16796875 21.66015625 C-23.92107294 19.01125715 -23.36163681 17.42114615 -21.9375 15.1875 C-19.41274538 13.92512269 -17.62549534 14.08893596 -14.8125 14.125 C-13.90242187 14.13402344 -12.99234375 14.14304687 -12.0546875 14.15234375 C-11.35601562 14.16394531 -10.65734375 14.17554688 -9.9375 14.1875 C-9.96070313 13.50042969 -9.98390625 12.81335937 -10.0078125 12.10546875 C-10.02585937 11.20441406 -10.04390625 10.30335937 -10.0625 9.375 C-10.08570313 8.48167969 -10.10890625 7.58835937 -10.1328125 6.66796875 C-9.9375 4.1875 -9.9375 4.1875 -7.9375 1.1875 C-5.02663331 0.2172111 -3.03526315 0.02282153 0 0 Z M-0.9375 23.1875 C-0.9375 23.8475 -0.9375 24.5075 -0.9375 25.1875 C-0.2775 25.1875 0.3825 25.1875 1.0625 25.1875 C1.0625 24.5275 1.0625 23.8675 1.0625 23.1875 C0.4025 23.1875 -0.2575 23.1875 -0.9375 23.1875 Z " fill="#0B0B0A" transform="translate(23.9375,-0.1875)"/>
<path d="M0 0 C1.82421875 1.99609375 1.82421875 1.99609375 3.6875 4.4375 C4.31011719 5.24058594 4.93273438 6.04367188 5.57421875 6.87109375 C7 9 7 9 7 11 C5.68 11 4.36 11 3 11 C3.66 11.33 4.32 11.66 5 12 C4.67 12.99 4.34 13.98 4 15 C3.01 15 2.02 15 1 15 C0.9175 16.0725 0.835 17.145 0.75 18.25 C-0.05570153 22.27850766 -0.78191466 23.56205656 -4 26 C-4.66 26 -5.32 26 -6 26 C-6.2475 26.61875 -6.495 27.2375 -6.75 27.875 C-8.28822496 30.48998244 -9.12350424 31.06708246 -12 32 C-17.46406191 32.51547754 -21.14600337 31.5203444 -26 29 C-27.625 27.5625 -27.625 27.5625 -29 26 C-29.804375 25.443125 -30.60875 24.88625 -31.4375 24.3125 C-35.68457167 20.47977679 -37.84214824 16.20992463 -38.25 10.5 C-38.1675 9.675 -38.085 8.85 -38 8 C-35.03 8 -32.06 8 -29 8 C-28.34 10.64 -27.68 13.28 -27 16 C-22.87387385 16.44844853 -22.87387385 16.44844853 -20.25 13.5 C-19.13625 12.2625 -19.13625 12.2625 -18 11 C-17.34 11.33 -16.68 11.66 -16 12 C-17.65 13.98 -19.3 15.96 -21 18 C-15.21602333 18.47249086 -15.21602333 18.47249086 -10.0625 16.1875 C-7.79689611 14.09189663 -7.79689611 14.09189663 -7 11 C-8.32 11 -9.64 11 -11 11 C-10.34 9.35 -9.68 7.7 -9 6 C-9.66 6 -10.32 6 -11 6 C-11 6.66 -11 7.32 -11 8 C-11.66 8 -12.32 8 -13 8 C-11.19184571 3.96642506 -9.48810172 1.74405086 -5.5 -0.25 C-3 -1 -3 -1 0 0 Z " fill="#C9602D" transform="translate(40,16)"/>
<path d="M0 0 C1.82421875 1.99609375 1.82421875 1.99609375 3.6875 4.4375 C4.31011719 5.24058594 4.93273437 6.04367188 5.57421875 6.87109375 C7 9 7 9 7 11 C5.68 11 4.36 11 3 11 C3.66 11.33 4.32 11.66 5 12 C4.67 12.99 4.34 13.98 4 15 C3.01 15 2.02 15 1 15 C0.938125 15.721875 0.87625 16.44375 0.8125 17.1875 C-0.24456647 20.84657625 -2.20550071 22.49211602 -5 25 C-5.66 24.67 -6.32 24.34 -7 24 C-4.03 20.535 -4.03 20.535 -1 17 C-1.99 16.67 -2.98 16.34 -4 16 C-4 15.01 -4 14.02 -4 13 C-4.66 13 -5.32 13 -6 13 C-6.66 14.32 -7.32 15.64 -8 17 C-8.99 17 -9.98 17 -11 17 C-10.2884375 16.3503125 -10.2884375 16.3503125 -9.5625 15.6875 C-7.76313043 13.97690387 -7.76313043 13.97690387 -7 11 C-8.32 11 -9.64 11 -11 11 C-10.34 9.35 -9.68 7.7 -9 6 C-9.66 6 -10.32 6 -11 6 C-11 6.66 -11 7.32 -11 8 C-11.66 8 -12.32 8 -13 8 C-11.19184571 3.96642506 -9.48810172 1.74405086 -5.5 -0.25 C-3 -1 -3 -1 0 0 Z " fill="#EBAA28" transform="translate(40,16)"/>
<path d="M0 0 C3.45334405 1.39461971 6.91152171 2.80585673 9 6 C9.0625 8.375 9.0625 8.375 8 11 C6.11876962 12.90721423 4.16150475 14.3903688 2 16 C-0.62386487 12.93882432 -1 12.26826873 -1 8 C-3.97 8 -6.94 8 -10 8 C-10.21917317 5.29686424 -10.32851983 3.56041618 -8.9375 1.1875 C-5.87868759 -0.68725599 -3.51635756 -0.35759568 0 0 Z " fill="#323231" transform="translate(12,16)"/>
<path d="M0 0 C1.32 0.66 2.64 1.32 4 2 C4 5.63 4 9.26 4 13 C3.01 13.495 3.01 13.495 2 14 C2 13.01 2 12.02 2 11 C-3.94 11.495 -3.94 11.495 -10 12 C-11.35375774 3.50824688 -11.35375774 3.50824688 -9.765625 1.2265625 C-6.83111913 -0.81201016 -3.41290701 -0.50440276 0 0 Z " fill="#4E4E4E" transform="translate(27,2)"/>
<path d="M0 0 C2.97 0 5.94 0 9 0 C9.66 2.64 10.32 5.28 11 8 C15.12612615 8.44844853 15.12612615 8.44844853 17.75 5.5 C18.4925 4.675 19.235 3.85 20 3 C20.66 3.33 21.32 3.66 22 4 C20.35 5.98 18.7 7.96 17 10 C20.3 10 23.6 10 27 10 C26.67 10.66 26.34 11.32 26 12 C18.94175114 13.79664517 14.43246018 12.08758089 8 9 C7.3503125 8.690625 6.700625 8.38125 6.03125 8.0625 C4.67611716 7.39771785 3.33570493 6.7030026 2 6 C3.63753682 9.04444636 3.63753682 9.04444636 5.875 9.8125 C8.93974461 11.5251514 10.20405908 14.04952563 12 17 C11.01 17.33 10.02 17.66 9 18 C4.18523796 15.16052495 1.80793382 11.15705713 0 6 C-0.25 2.5 -0.25 2.5 0 0 Z " fill="#D07F41" transform="translate(2,24)"/>
<path d="M0 0 C4.67502176 1.47632266 9.19312719 3.25065854 13.73046875 5.09765625 C15.46580578 5.78760953 17.22836597 6.40945532 19 7 C19 7.66 19 8.32 19 9 C19.61875 9.12375 20.2375 9.2475 20.875 9.375 C23 10 23 10 25 12 C23.27904777 13.72095223 21.02836086 13.17199761 18.6875 13.1875 C17.72199219 13.20167969 16.75648437 13.21585938 15.76171875 13.23046875 C12.90105569 12.99174298 11.36661527 12.59311115 9 11 C7.58505812 9.2283164 6.44331895 7.38434848 5.24609375 5.4609375 C4.62927734 4.73777344 4.62927734 4.73777344 4 4 C3.01 4 2.02 4 1 4 C0.67 2.68 0.34 1.36 0 0 Z " fill="#D93902" transform="translate(4,30)"/>
<path d="M0 0 C0.99 0.33 1.98 0.66 3 1 C3 1.66 3 2.32 3 3 C2.34 3 1.68 3 1 3 C1 4.65 1 6.3 1 8 C-2.63 8 -6.26 8 -10 8 C-10 3 -10 3 -8.9375 1.1875 C-5.96608707 -0.63368857 -3.40678991 -0.24334214 0 0 Z " fill="#4F4F4E" transform="translate(12,16)"/>
<path d="M0 0 C0.85464844 -0.01417969 1.70929687 -0.02835937 2.58984375 -0.04296875 C5.23874285 0.20392706 6.82885385 0.76336319 9.0625 2.1875 C10.26522819 4.59295638 10.16321472 6.13746953 10.125 8.8125 C10.11597656 9.62976562 10.10695313 10.44703125 10.09765625 11.2890625 C10.08605469 11.91554688 10.07445313 12.54203125 10.0625 13.1875 C9.0725 13.6825 9.0725 13.6825 8.0625 14.1875 C8.03671875 13.56101562 8.0109375 12.93453125 7.984375 12.2890625 C7.92765625 11.47179688 7.8709375 10.65453125 7.8125 9.8125 C7.76609375 9.00039062 7.7196875 8.18828125 7.671875 7.3515625 C7.26856577 5.05248932 7.26856577 5.05248932 5.2734375 3.9140625 C1.70004603 2.73976778 -1.17879447 2.94500287 -4.9375 3.1875 C-7.33513185 5.58513185 -7.28030586 6.52023498 -7.5625 9.8125 C-7.63726563 10.62976562 -7.71203125 11.44703125 -7.7890625 12.2890625 C-7.83804687 12.91554688 -7.88703125 13.54203125 -7.9375 14.1875 C-10.54454898 11.58045102 -10.17655333 9.71411759 -10.203125 6.16015625 C-9.9375 4.1875 -9.9375 4.1875 -7.9375 1.1875 C-5.02663331 0.2172111 -3.03526315 0.02282153 0 0 Z " fill="#030303" transform="translate(23.9375,-0.1875)"/>
<path d="M0 0 C0 3 0 3 -1.375 4.6875 C-3 6 -3 6 -5 6 C-5.2475 6.61875 -5.495 7.2375 -5.75 7.875 C-7.28822496 10.48998244 -8.12350424 11.06708246 -11 12 C-16.60705805 12.52896774 -20.07381078 11.41282737 -25 9 C-22.21259884 8.07086628 -20.37294804 8.04324496 -17.375 8.25 C-11.40337907 8.35083412 -5.53433253 5.35764704 -1.20703125 1.33203125 C-0.80871094 0.89246094 -0.41039063 0.45289063 0 0 Z " fill="#0C0C0B" transform="translate(39,36)"/>
<path d="M0 0 C0.91007812 0.00902344 1.82015625 0.01804687 2.7578125 0.02734375 C3.45648438 0.03894531 4.15515625 0.05054688 4.875 0.0625 C5.205 1.3825 5.535 2.7025 5.875 4.0625 C3.62331203 6.14739627 2.49763575 7.0625 -0.625 7.0625 C-3.87253145 5.76348742 -5.16164044 3.8984638 -7.125 1.0625 C-4.60024538 -0.19987731 -2.81299534 -0.03606404 0 0 Z " fill="#2F2F2F" transform="translate(24.125,12.9375)"/>
<path d="M0 0 C2.375 0.3125 2.375 0.3125 5 1 C7.22698735 4.34048103 7.2711921 5.53285581 7.25 9.4375 C7.25515625 10.38496094 7.2603125 11.33242188 7.265625 12.30859375 C6.99748089 15.02552453 6.38531142 16.67465583 5 19 C3.68 19 2.36 19 1 19 C0.67 19.99 0.34 20.98 0 22 C-0.33 21.34 -0.66 20.68 -1 20 C0 17 0 17 3 15 C2.67 14.34 2.34 13.68 2 13 C3.32 13 4.64 13 6 13 C3.99680519 5.99529442 3.99680519 5.99529442 0 0 Z " fill="#020101" transform="translate(41,14)"/>
<path d="M0 0 C2.62187494 1.04874998 3.79371361 1.64931313 5.25 4.125 C5.4975 4.74375 5.745 5.3625 6 6 C2.79619983 8.13586678 1.98060033 8.23132175 -1.6875 8.125 C-2.89986328 8.09792969 -2.89986328 8.09792969 -4.13671875 8.0703125 C-5.05904297 8.03550781 -5.05904297 8.03550781 -6 8 C-4.26440562 4.942048 -2.61527381 2.36620011 0 0 Z " fill="#404140" transform="translate(24,27)"/>
<path d="M0 0 C0.66 0 1.32 0 2 0 C2.33 0.99 2.66 1.98 3 3 C3.66 3.33 4.32 3.66 5 4 C3.25 7.875 3.25 7.875 1 9 C-1.03144641 8.06553465 -3.03533587 7.06775224 -5 6 C-3.38405168 3.95880212 -1.7143618 1.95927063 0 0 Z " fill="#FC7903" transform="translate(34,29)"/>
<path d="M0 0 C0.66 0 1.32 0 2 0 C1.34 1.65 0.68 3.3 0 5 C1.32 5 2.64 5 4 5 C3.67 6.32 3.34 7.64 3 9 C0 9 0 9 -1.5 7.625 C-1.995 7.08875 -2.49 6.5525 -3 6 C-3.99 5.34 -4.98 4.68 -6 4 C-4.68 3.01 -3.36 2.02 -2 1 C-1.34 1.33 -0.68 1.66 0 2 C0 1.34 0 0.68 0 0 Z " fill="#1B1B19" transform="translate(29,22)"/>
<path d="M0 0 C4.20626034 1.50223584 5.73900021 4.28550034 8 8 C7.01 8.33 6.02 8.66 5 9 C2.3125 7.375 2.3125 7.375 0 5 C-0.3125 2.25 -0.3125 2.25 0 0 Z " fill="#C54E29" transform="translate(6,33)"/>
<path d="M0 0 C0.93065133 2.60582371 1.14917407 3.64198224 0.0625 6.25 C-0.4634375 7.11625 -0.4634375 7.11625 -1 8 C-2.32 8 -3.64 8 -5 8 C-5.33 8.99 -5.66 9.98 -6 11 C-6.33 10.34 -6.66 9.68 -7 9 C-6 6 -6 6 -3 4 C-3.33 3.34 -3.66 2.68 -4 2 C-2.68 2 -1.36 2 0 2 C0 1.34 0 0.68 0 0 Z " fill="#11110F" transform="translate(47,25)"/>
<path d="M0 0 C0.598125 0.226875 1.19625 0.45375 1.8125 0.6875 C0.1625 2.3375 -1.4875 3.9875 -3.1875 5.6875 C-3.8475 5.3575 -4.5075 5.0275 -5.1875 4.6875 C-5.1875 5.3475 -5.1875 6.0075 -5.1875 6.6875 C-5.8475 6.6875 -6.5075 6.6875 -7.1875 6.6875 C-3.9375 -0.5625 -3.9375 -0.5625 0 0 Z " fill="#777775" transform="translate(34.1875,17.3125)"/>
<path d="M0 0 C0.99 0.66 1.98 1.32 3 2 C3 2.66 3 3.32 3 4 C1.68 4 0.36 4 -1 4 C-0.34 4.33 0.32 4.66 1 5 C0.67 5.99 0.34 6.98 0 8 C-0.99 8 -1.98 8 -3 8 C-3 6.35 -3 4.7 -3 3 C-2.01 2.67 -1.02 2.34 0 2 C0 1.34 0 0.68 0 0 Z " fill="#A29662" transform="translate(44,23)"/>
<path d="M0 0 C1.875 0.3125 1.875 0.3125 4 1 C6 4 6 4 5.625 6.1875 C5.41875 6.785625 5.2125 7.38375 5 8 C0 2.25 0 2.25 0 0 Z " fill="#2F2E2D" transform="translate(40,16)"/>
<path d="M0 0 C4.75 0.875 4.75 0.875 7 2 C6.34 3.65 5.68 5.3 5 7 C4.34 7 3.68 7 3 7 C2.814375 5.824375 2.814375 5.824375 2.625 4.625 C2.20882007 1.85942178 2.20882007 1.85942178 0 0 Z " fill="#EB6511" transform="translate(28,35)"/>
<path d="M0 0 C2.4375 0.375 2.4375 0.375 5 1 C5.33 1.66 5.66 2.32 6 3 C5.2575 2.979375 4.515 2.95875 3.75 2.9375 C1.29537721 2.99328688 -0.66109261 3.3069904 -3 4 C-2.01 2.68 -1.02 1.36 0 0 Z " fill="#121110" transform="translate(36,13)"/>
<path d="M0 0 C1.32 0.66 2.64 1.32 4 2 C3.67 2.66 3.34 3.32 3 4 C1.35 4 -0.3 4 -2 4 C-1.34 2.68 -0.68 1.36 0 0 Z " fill="#343434" transform="translate(24,27)"/>
</svg>
