<?xml version="1.0" encoding="UTF-8"?>
<svg version="1.1" xmlns="http://www.w3.org/2000/svg" width="44" height="44">
<path d="M0 0 C5.04885564 3.02931338 8.65629405 7.96888215 10.5 13.5 C11.72197308 29.26545596 11.72197308 29.26545596 6.5 35.5 C-0.37331562 41.79247205 -5.73031893 42.87432182 -14.98046875 42.76953125 C-20.75106966 42.32760954 -24.365947 40.8310425 -28.27734375 36.55859375 C-34.01603034 29.2265777 -34.20246058 22.6727099 -33.5 13.5 C-31.9990981 7.41035342 -28.41458662 4.15960324 -23.40234375 0.62890625 C-17.03779226 -3.14800418 -6.69128113 -2.94936081 0 0 Z " fill="#453A3A" transform="translate(33.5,1.5)"/>
<path d="M0 0 C4.9527965 2.86206683 8.45506135 7.06640009 10.625 12.375 C10.8203125 14.953125 10.8203125 14.953125 10.75 17.625 C10.73195312 18.51703125 10.71390625 19.4090625 10.6953125 20.328125 C10.67210937 21.00359375 10.64890625 21.6790625 10.625 22.375 C9.635 22.705 8.645 23.035 7.625 23.375 C7.13 22.653125 6.635 21.93125 6.125 21.1875 C3.03932434 17.71611489 -0.37131864 15.6586532 -4.375 13.375 C-4.045 11.725 -3.715 10.075 -3.375 8.375 C-1.725 8.045 -0.075 7.715 1.625 7.375 C1.955 8.365 2.285 9.355 2.625 10.375 C3.285 10.375 3.945 10.375 4.625 10.375 C4.625 9.055 4.625 7.735 4.625 6.375 C-1.66351034 5.07883728 -1.66351034 5.07883728 -7.375 7.375 C-7.375 6.385 -7.375 5.395 -7.375 4.375 C-8.365 4.375 -9.355 4.375 -10.375 4.375 C-10.375 8.335 -10.375 12.295 -10.375 16.375 C-13.345 16.375 -16.315 16.375 -19.375 16.375 C-19.375 12.415 -19.375 8.455 -19.375 4.375 C-20.035 4.375 -20.695 4.375 -21.375 4.375 C-21.705 13.285 -22.035 22.195 -22.375 31.375 C-27.18330939 26.56669061 -28.66460816 24.34102946 -28.8125 17.625 C-28.68819615 11.62185541 -27.5212924 7.75388929 -23.375 3.375 C-16.73518898 -2.76907852 -8.23453876 -3.68223715 0 0 Z " fill="#564F4F" transform="translate(30.375,2.625)"/>
<path d="M0 0 C5.04885564 3.02931338 8.65629405 7.96888215 10.5 13.5 C11.72197308 29.26545596 11.72197308 29.26545596 6.5 35.5 C-0.37331562 41.79247205 -5.73031893 42.87432182 -14.98046875 42.76953125 C-20.75106966 42.32760954 -24.365947 40.8310425 -28.27734375 36.55859375 C-34.01603034 29.2265777 -34.20246058 22.6727099 -33.5 13.5 C-31.9990981 7.41035342 -28.41458662 4.15960324 -23.40234375 0.62890625 C-17.03779226 -3.14800418 -6.69128113 -2.94936081 0 0 Z M-28.9453125 7.03515625 C-32.57028012 12.19376402 -32.50215899 18.47939596 -31.5 24.5 C-29.35160815 30.04937966 -26.16683114 35.34309272 -20.62109375 37.94921875 C-14.79345001 39.46247431 -8.83591426 39.23538041 -3.125 37.4375 C1.62546693 33.93120298 6.1310222 29.38660456 7.5 23.5 C8.30313647 17.1629232 7.81019635 12.52685042 4.06640625 7.2578125 C0.2848158 3.01413244 -4.14427926 -0.06540666 -9.8828125 -0.80859375 C-18.17892844 -1.19858211 -23.25216615 0.98811162 -28.9453125 7.03515625 Z " fill="#030303" transform="translate(33.5,1.5)"/>
<path d="M0 0 C2 0.3125 2 0.3125 4 1 C5.20272819 3.40545638 5.10071472 4.94996953 5.0625 7.625 C5.05347656 8.44226562 5.04445313 9.25953125 5.03515625 10.1015625 C5.02355469 10.72804688 5.01195312 11.35453125 5 12 C6.65 12 8.3 12 10 12 C10 8.7 10 5.4 10 2 C11.32 1.67 12.64 1.34 14 1 C13.01 1.495 13.01 1.495 12 2 C12 5.96 12 9.92 12 14 C9.03 14 6.06 14 3 14 C3 10.04 3 6.08 3 2 C2.34 2 1.68 2 1 2 C0.67 10.91 0.34 19.82 0 29 C-4.80830939 24.19169061 -6.28960816 21.96602946 -6.4375 15.25 C-6.35998875 8.91733049 -4.48232305 4.48232305 0 0 Z " fill="#4F4F4F" transform="translate(8,5)"/>
<path d="M0 0 C2.375 1.625 2.375 1.625 3.375 3.625 C1.395 3.625 -0.585 3.625 -2.625 3.625 C-3.285 4.945 -3.945 6.265 -4.625 7.625 C-5.285 7.625 -5.945 7.625 -6.625 7.625 C-6.955 6.635 -7.285 5.645 -7.625 4.625 C-8.615 4.625 -9.605 4.625 -10.625 4.625 C-10.955 7.925 -11.285 11.225 -11.625 14.625 C-13.275 14.625 -14.925 14.625 -16.625 14.625 C-16.955 10.995 -17.285 7.365 -17.625 3.625 C-18.285 3.625 -18.945 3.625 -19.625 3.625 C-18.625 0.625 -18.625 0.625 -16.8984375 -0.54296875 C-11.42151522 -2.54740938 -5.36079066 -2.03340335 0 0 Z " fill="#626161" transform="translate(29.625,2.375)"/>
<path d="M0 0 C0.66 0 1.32 0 2 0 C2 3.96 2 7.92 2 12 C4.97 12 7.94 12 11 12 C11 8.04 11 4.08 11 0 C11.66 0 12.32 0 13 0 C13 9.24 13 18.48 13 28 C12.01 27.67 11.02 27.34 10 27 C10 23.04 10 19.08 10 15 C7.36 15 4.72 15 2 15 C2 19.29 2 23.58 2 28 C1.34 28 0.68 28 0 28 C0 18.76 0 9.52 0 0 Z " fill="#D73333" transform="translate(9,7)"/>
<path d="M0 0 C0.99 0.66 1.98 1.32 3 2 C3 3.32 3 4.64 3 6 C2.34 6 1.68 6 1 6 C0.67 5.34 0.34 4.68 0 4 C-1.65 4.33 -3.3 4.66 -5 5 C-5.04510361 7.37897003 -5.04510361 7.37897003 -4 10 C-1.77669748 11.66064856 0.49952076 12.74976038 3 14 C4 15 4 15 4.3125 18.75 C4.28978344 22.96013667 3.00752661 24.99247339 0 28 C-2.875 27.6875 -2.875 27.6875 -6 27 C-8 24 -8 24 -8 21 C-7.34 21 -6.68 21 -6 21 C-5.34 21.99 -4.68 22.98 -4 24 C-1.94074861 24.72382467 -1.94074861 24.72382467 0 25 C0.33 22.36 0.66 19.72 1 17 C0.43410156 16.66226562 -0.13179687 16.32453125 -0.71484375 15.9765625 C-1.44832031 15.53054687 -2.18179687 15.08453125 -2.9375 14.625 C-4.03384766 13.96371094 -4.03384766 13.96371094 -5.15234375 13.2890625 C-7 12 -7 12 -8 10 C-8.45508982 3.74251497 -8.45508982 3.74251497 -6.8125 1.0625 C-4.3648354 -0.37233787 -2.79523674 -0.34940459 0 0 Z " fill="#E53333" transform="translate(32,7)"/>
<path d="M0 0 C2.14086489 3.21129733 2.32707811 4.75412041 2.75 8.5 C3.15178797 11.41678955 3.15178797 11.41678955 4 14 C6.92112751 16.30014759 6.92112751 16.30014759 10 17 C10 18.65 10 20.3 10 22 C8.68 22.33 7.36 22.66 6 23 C5.67 22.34 5.34 21.68 5 21 C3.35 20.67 1.7 20.34 0 20 C0 13.4 0 6.8 0 0 Z " fill="#4C4C4C" transform="translate(22,7)"/>
<path d="M0 0 C0.99 0.33 1.98 0.66 3 1 C2.34 1 1.68 1 1 1 C1 4.96 1 8.92 1 13 C-1.97 13 -4.94 13 -8 13 C-8 9.37 -8 5.74 -8 2 C-7.34 2 -6.68 2 -6 2 C-6 4.97 -6 7.94 -6 11 C-4.35 11 -2.7 11 -1 11 C-1.01160156 10.28972656 -1.02320313 9.57945313 -1.03515625 8.84765625 C-1.04869141 7.46900391 -1.04869141 7.46900391 -1.0625 6.0625 C-1.07410156 5.14597656 -1.08570313 4.22945312 -1.09765625 3.28515625 C-1 1 -1 1 0 0 Z " fill="#6E4242" transform="translate(19,6)"/>
<path d="M0 0 C2.02350324 3.03525486 2.32124018 4.19426202 2.625 7.6875 C2.69976563 8.49574219 2.77453125 9.30398437 2.8515625 10.13671875 C2.90054687 10.75160156 2.94953125 11.36648437 3 12 C2.34 12 1.68 12 1 12 C1 14.31 1 16.62 1 19 C1.99 19.33 2.98 19.66 4 20 C2.68 20 1.36 20 0 20 C0 13.4 0 6.8 0 0 Z " fill="#4B4141" transform="translate(22,7)"/>
<path d="M0 0 C0.70125 0.680625 1.4025 1.36125 2.125 2.0625 C1.465 4.0425 0.805 6.0225 0.125 8.0625 C-0.865 7.4025 -1.855 6.7425 -2.875 6.0625 C-2.215 6.0625 -1.555 6.0625 -0.875 6.0625 C-0.875 4.7425 -0.875 3.4225 -0.875 2.0625 C-3.515 1.4025 -6.155 0.7425 -8.875 0.0625 C-8.875 -0.2675 -8.875 -0.5975 -8.875 -0.9375 C-4.88626044 -2.05063662 -3.52537142 -2.37579379 0 0 Z " fill="#5B4949" transform="translate(35.875,6.9375)"/>
<path d="M0 0 C3.46941546 0.45822468 6.67395049 0.89131683 10 2 C8.625 3.5 8.625 3.5 7 5 C6.34 5 5.68 5 5 5 C5 4.34 5 3.68 5 3 C3.35 2.67 1.7 2.34 0 2 C0 1.34 0 0.68 0 0 Z " fill="#3A3030" transform="translate(25,33)"/>
</svg>
