<?xml version="1.0" encoding="UTF-8"?>
<svg version="1.1" xmlns="http://www.w3.org/2000/svg" width="44" height="44">
<path d="M0 0 C5.04885564 3.02931338 8.65629405 7.96888215 10.5 13.5 C11.72197308 29.26545596 11.72197308 29.26545596 6.5 35.5 C-0.37331562 41.79247205 -5.73031893 42.87432182 -14.98046875 42.76953125 C-20.75106966 42.32760954 -24.365947 40.8310425 -28.27734375 36.55859375 C-34.01603034 29.2265777 -34.20246058 22.6727099 -33.5 13.5 C-31.9990981 7.41035342 -28.41458662 4.15960324 -23.40234375 0.62890625 C-17.03779226 -3.14800418 -6.69128113 -2.94936081 0 0 Z " fill="#3C3F41" transform="translate(33.5,1.5)"/>
<path d="M0 0 C2.375 1.625 2.375 1.625 3.375 3.625 C1.395 4.285 -0.585 4.945 -2.625 5.625 C-1.305 5.295 0.015 4.965 1.375 4.625 C1.375 5.945 1.375 7.265 1.375 8.625 C-0.9609375 10.765625 -0.9609375 10.765625 -4 12.875 C-4.99773438 13.58140625 -5.99546875 14.2878125 -7.0234375 15.015625 C-9.625 16.625 -9.625 16.625 -11.625 16.625 C-7.65193275 20.8629384 -3.25180951 24.33183011 1.36328125 27.85546875 C2.02714844 28.43941406 2.69101562 29.02335937 3.375 29.625 C3.375 30.285 3.375 30.945 3.375 31.625 C-1.05881182 31.10851654 -3.37108701 29.5445931 -6.75 26.6875 C-9.33691568 24.52125298 -11.81457301 22.49861799 -14.625 20.625 C-14.625 24.255 -14.625 27.885 -14.625 31.625 C-15.945 31.625 -17.265 31.625 -18.625 31.625 C-18.625 22.715 -18.625 13.805 -18.625 4.625 C-21.1 6.11 -21.1 6.11 -23.625 7.625 C-23.24286268 5.20823965 -22.9020537 3.90649842 -21.1640625 2.140625 C-14.34650902 -2.36730832 -7.6510154 -2.90210929 0 0 Z " fill="#646464" transform="translate(29.625,2.375)"/>
<path d="M0 0 C5.04885564 3.02931338 8.65629405 7.96888215 10.5 13.5 C11.72197308 29.26545596 11.72197308 29.26545596 6.5 35.5 C-0.37331562 41.79247205 -5.73031893 42.87432182 -14.98046875 42.76953125 C-20.75106966 42.32760954 -24.365947 40.8310425 -28.27734375 36.55859375 C-34.01603034 29.2265777 -34.20246058 22.6727099 -33.5 13.5 C-31.9990981 7.41035342 -28.41458662 4.15960324 -23.40234375 0.62890625 C-17.03779226 -3.14800418 -6.69128113 -2.94936081 0 0 Z M-28.9453125 7.03515625 C-32.56470792 12.18583435 -32.42044514 18.48108915 -31.5 24.5 C-29.12248887 30.65117773 -24.39510579 35.55244711 -18.5 38.5 C-10.88153314 39.45230836 -4.9677214 38.7863216 1.4296875 34.39453125 C6.22195289 30.00915632 7.66270133 24.78552273 8.0625 18.4375 C7.81487298 13.12177334 6.01837952 9.44830619 2.5 5.5 C-3.16097222 0.52032641 -8.1611343 -0.98479924 -15.57421875 -0.90625 C-21.22719657 -0.12132384 -25.11061207 2.96208255 -28.9453125 7.03515625 Z " fill="#030303" transform="translate(33.5,1.5)"/>
<path d="M0 0 C4.05182081 4.15844767 5.55106178 7.67694121 5.75 13.4375 C5.6000062 17.77427729 4.9320467 20.82236501 2.375 24.4375 C-0.3125 26.3125 -0.3125 26.3125 -2.625 27.4375 C-3.24375 26.7775 -3.8625 26.1175 -4.5 25.4375 C-7.90389171 21.99414288 -11.77141031 19.14031374 -15.61328125 16.20703125 C-16.27714844 15.62308594 -16.94101562 15.03914063 -17.625 14.4375 C-17.625 13.7775 -17.625 13.1175 -17.625 12.4375 C-14.88892976 10.4230307 -12.0922607 8.56692328 -9.24609375 6.71484375 C-7.67429427 5.66812893 -6.14571101 4.55714437 -4.625 3.4375 C-4.625 2.7775 -4.625 2.1175 -4.625 1.4375 C-6.935 2.0975 -9.245 2.7575 -11.625 3.4375 C-9.60407654 1.11718048 -8.05414332 -0.3864412 -5.1875 -1.5625 C-2.625 -1.5625 -2.625 -1.5625 0 0 Z " fill="#505253" transform="translate(35.625,6.5625)"/>
<path d="M0 0 C0.99 0.33 1.98 0.66 3 1 C3 3.97 3 6.94 3 10 C4.46373047 8.89978516 4.46373047 8.89978516 5.95703125 7.77734375 C7.24178813 6.83018721 8.5269664 5.88360207 9.8125 4.9375 C10.45509766 4.45216797 11.09769531 3.96683594 11.75976562 3.46679688 C13.45092901 2.23128373 15.22220746 1.10723982 17 0 C17.99 0.33 18.98 0.66 20 1 C18.69876154 4.90371537 16.88284282 5.8170602 13.5625 8.1875 C12.07943359 9.26064453 12.07943359 9.26064453 10.56640625 10.35546875 C8 12 8 12 6 12 C9.97306725 16.2379384 14.37319049 19.70683011 18.98828125 23.23046875 C19.65214844 23.81441406 20.31601562 24.39835937 21 25 C21 25.66 21 26.32 21 27 C16.56618818 26.48351654 14.25391299 24.9195931 10.875 22.0625 C8.28808432 19.89625298 5.81042699 17.87361799 3 16 C3 19.63 3 23.26 3 27 C2.01 27.33 1.02 27.66 0 28 C0 18.76 0 9.52 0 0 Z " fill="#62C1EF" transform="translate(12,7)"/>
<path d="M0 0 C-0.33 9.24 -0.66 18.48 -1 28 C-5.51345387 25.74327306 -7.42402198 23.68752435 -9 19 C-9.77843942 12.53296486 -9.91981941 7.42082343 -6 2 C-3.80010103 0.60006429 -2.60233337 0 0 0 Z " fill="#515151" transform="translate(11,7)"/>
<path d="M0 0 C0.66 0.33 1.32 0.66 2 1 C1.67 1.33 1.34 1.66 1 2 C1.804375 2.391875 2.60875 2.78375 3.4375 3.1875 C6 5 6 5 6.8125 7.6875 C6.874375 8.450625 6.93625 9.21375 7 10 C8.65 9.34 10.3 8.68 12 8 C7.375 12.875 7.375 12.875 4 14 C3.95101563 13.36191406 3.90203125 12.72382813 3.8515625 12.06640625 C3.77679688 11.24011719 3.70203125 10.41382813 3.625 9.5625 C3.55539062 8.73878906 3.48578125 7.91507813 3.4140625 7.06640625 C3.27742187 6.38449219 3.14078125 5.70257812 3 5 C2.34 4.67 1.68 4.34 1 4 C1 12.91 1 21.82 1 31 C0.67 31 0.34 31 0 31 C0 22.09 0 13.18 0 4 C-2.475 5.485 -2.475 5.485 -5 7 C-4.60196439 4.11424181 -4.20990931 3.17810487 -1.9375 1.25 C-1.298125 0.8375 -0.65875 0.425 0 0 Z " fill="#526D7B" transform="translate(11,3)"/>
<path d="M0 0 C0.33 0 0.66 0 1 0 C1 1.65 1 3.3 1 5 C2.175625 4.2265625 2.175625 4.2265625 3.375 3.4375 C4.24125 2.963125 5.1075 2.48875 6 2 C6.66 2.33 7.32 2.66 8 3 C2.25 8 2.25 8 0 8 C0 5.36 0 2.72 0 0 Z " fill="#49565D" transform="translate(15,9)"/>
</svg>
