<?xml version="1.0" encoding="UTF-8"?>
<svg version="1.1" xmlns="http://www.w3.org/2000/svg" width="44" height="44">
<path d="M0 0 C5.04885564 3.02931338 8.65629405 7.96888215 10.5 13.5 C11.72197308 29.26545596 11.72197308 29.26545596 6.5 35.5 C-0.37331562 41.79247205 -5.73031893 42.87432182 -14.98046875 42.76953125 C-20.75106966 42.32760954 -24.365947 40.8310425 -28.27734375 36.55859375 C-34.01603034 29.2265777 -34.20246058 22.6727099 -33.5 13.5 C-31.9990981 7.41035342 -28.41458662 4.15960324 -23.40234375 0.62890625 C-17.03779226 -3.14800418 -6.69128113 -2.94936081 0 0 Z " fill="#514D50" transform="translate(33.5,1.5)"/>
<path d="M0 0 C5.04885564 3.02931338 8.65629405 7.96888215 10.5 13.5 C11.72197308 29.26545596 11.72197308 29.26545596 6.5 35.5 C-0.37331562 41.79247205 -5.73031893 42.87432182 -14.98046875 42.76953125 C-20.75106966 42.32760954 -24.365947 40.8310425 -28.27734375 36.55859375 C-34.01603034 29.2265777 -34.20246058 22.6727099 -33.5 13.5 C-31.9990981 7.41035342 -28.41458662 4.15960324 -23.40234375 0.62890625 C-17.03779226 -3.14800418 -6.69128113 -2.94936081 0 0 Z M-28.9453125 7.03515625 C-32.56470792 12.18583435 -32.42044514 18.48108915 -31.5 24.5 C-29.36322387 30.02833994 -25.53503987 34.42303119 -20.5 37.5 C-13.60987314 39.22521061 -6.75418836 39.0772984 -0.5 35.5 C3.99484339 31.58389181 7.02836739 27.22137511 7.78515625 21.25 C8.17543317 14.68534204 6.73603994 10.5136144 2.5 5.5 C-2.94020209 0.33180802 -8.27669353 -1.09055276 -15.64453125 -0.94140625 C-21.24665588 -0.07541434 -25.13198813 2.98478739 -28.9453125 7.03515625 Z " fill="#040404" transform="translate(33.5,1.5)"/>
<path d="M0 0 C7.42385923 0.15620523 7.42385923 0.15620523 10.5625 1.8125 C13.31895959 5.04149552 13.42797208 7.02023172 13.44921875 11.15625 C12.3912303 14.51344239 10.72932163 15.5825626 7.75 17.375 C4.41796875 17.765625 4.41796875 17.765625 0.9375 17.625 C-0.22394531 17.58890625 -1.38539062 17.5528125 -2.58203125 17.515625 C-3.46246094 17.46921875 -4.34289062 17.4228125 -5.25 17.375 C-5.25 21.005 -5.25 24.635 -5.25 28.375 C-6.24 28.375 -7.23 28.375 -8.25 28.375 C-8.30783842 24.08338953 -8.3435412 19.79187855 -8.375 15.5 C-8.39175781 14.27667969 -8.40851562 13.05335937 -8.42578125 11.79296875 C-8.43222656 10.62636719 -8.43867188 9.45976562 -8.4453125 8.2578125 C-8.45578613 7.17902832 -8.46625977 6.10024414 -8.47705078 4.98876953 C-8.00755193 -0.41602045 -4.60120084 0.05252512 0 0 Z " fill="#ED84ED" transform="translate(21.25,6.625)"/>
<path d="M0 0 C2.12472576 -0.05386629 4.24983652 -0.09273071 6.375 -0.125 C7.55835938 -0.14820313 8.74171875 -0.17140625 9.9609375 -0.1953125 C13 0 13 0 15 2 C15.375 4.4375 15.375 4.4375 15 7 C12.72595519 9.25269228 11.41146445 9.95689967 8.203125 10.29296875 C7.22859375 10.25816406 6.2540625 10.22335938 5.25 10.1875 C4.26515625 10.16042969 3.2803125 10.13335937 2.265625 10.10546875 C1.51796875 10.07066406 0.7703125 10.03585938 0 10 C0 6.7 0 3.4 0 0 Z " fill="#5C5A5C" transform="translate(16,11)"/>
<path d="M0 0 C4.29 0 8.58 0 13 0 C13.33 1.32 13.66 2.64 14 4 C13.34 3.34 12.68 2.68 12 2 C9.56747339 1.53837573 9.56747339 1.53837573 6.875 1.375 C5.96492188 1.30023438 5.05484375 1.22546875 4.1171875 1.1484375 C3.41851563 1.09945313 2.71984375 1.05046875 2 1 C2 3.31 2 5.62 2 8 C3.6254308 7.85904936 5.25034051 7.71207913 6.875 7.5625 C7.77992187 7.48128906 8.68484375 7.40007813 9.6171875 7.31640625 C12.01110861 7.13010715 12.01110861 7.13010715 14 6 C13 9 13 9 11 10 C9.12620395 10.07033769 7.24998898 10.0843022 5.375 10.0625 C4.37210938 10.05347656 3.36921875 10.04445313 2.3359375 10.03515625 C1.56507812 10.02355469 0.79421875 10.01195312 0 10 C0 6.7 0 3.4 0 0 Z " fill="#594B58" transform="translate(16,11)"/>
</svg>
